<?xml version="1.0" encoding="UTF-8" standalone="no"?>
<!-- Created with Inkscape (http://www.inkscape.org/) -->

<svg
   xmlns:dc="http://purl.org/dc/elements/1.1/"
   xmlns:cc="http://creativecommons.org/ns#"
   xmlns:rdf="http://www.w3.org/1999/02/22-rdf-syntax-ns#"
   xmlns:svg="http://www.w3.org/2000/svg"
   xmlns="http://www.w3.org/2000/svg"
   xmlns:sodipodi="http://sodipodi.sourceforge.net/DTD/sodipodi-0.dtd"
   xmlns:inkscape="http://www.inkscape.org/namespaces/inkscape"
   version="1.1"
   id="svg815"
   xml:space="preserve"
   width="793.33331"
   height="1122.6667"
   viewBox="0 0 793.33331 1122.6667"
   sodipodi:docname="biasvariance.svg"
   inkscape:version="0.92.4 (5da689c313, 2019-01-14)"><metadata
     id="metadata821"><rdf:RDF><cc:Work
         rdf:about=""><dc:format>image/svg+xml</dc:format><dc:type
           rdf:resource="http://purl.org/dc/dcmitype/StillImage" /><dc:title></dc:title></cc:Work></rdf:RDF></metadata><defs
     id="defs819"><clipPath
       clipPathUnits="userSpaceOnUse"
       id="clipPath833"><path
         d="m 505.75,0.671875 h 3946.5 V 7016.67 H 505.75 Z"
         id="path831"
         inkscape:connector-curvature="0" /></clipPath><clipPath
       clipPathUnits="userSpaceOnUse"
       id="clipPath849"><path
         d="m 505,2 v 7015 h 43 V 2 Z"
         id="path847"
         inkscape:connector-curvature="0" /></clipPath><linearGradient
       x1="0"
       y1="0"
       x2="0"
       y2="100.001"
       gradientUnits="userSpaceOnUse"
       gradientTransform="matrix(0,140.33917,-7.501225,0,735.13083,-3506.675)"
       id="linearGradient861"><stop
         style="stop-opacity:1;stop-color:#ffffff"
         offset="0"
         id="stop851" /><stop
         style="stop-opacity:1;stop-color:#ffffff"
         offset="25.0003"
         id="stop853" /><stop
         style="stop-opacity:1;stop-color:#ffffff"
         offset="50.0006"
         id="stop855" /><stop
         style="stop-opacity:1;stop-color:#ffffff"
         offset="75.001"
         id="stop857" /><stop
         style="stop-opacity:1;stop-color:#ffffff"
         offset="100.001"
         id="stop859" /></linearGradient><clipPath
       clipPathUnits="userSpaceOnUse"
       id="clipPath871"><path
         d="m 505,2 v 3575 h 43 V 2 Z"
         id="path869"
         inkscape:connector-curvature="0" /></clipPath><linearGradient
       x1="0"
       y1="0"
       x2="0"
       y2="100.001"
       gradientUnits="userSpaceOnUse"
       gradientTransform="matrix(0,71.4935,-7.501225,0,735.13083,-1785.3333)"
       id="linearGradient883"><stop
         style="stop-opacity:1;stop-color:#403f9f"
         offset="0"
         id="stop873" /><stop
         style="stop-opacity:1;stop-color:#403f9f"
         offset="25.0003"
         id="stop875" /><stop
         style="stop-opacity:1;stop-color:#403f9f"
         offset="50.0006"
         id="stop877" /><stop
         style="stop-opacity:1;stop-color:#403f9f"
         offset="75.001"
         id="stop879" /><stop
         style="stop-opacity:1;stop-color:#403f9f"
         offset="100.001"
         id="stop881" /></linearGradient><clipPath
       clipPathUnits="userSpaceOnUse"
       id="clipPath893"><path
         d="m 505.75,0.671875 h 3946.5 V 7016.67 H 505.75 Z"
         id="path891"
         inkscape:connector-curvature="0" /></clipPath><clipPath
       clipPathUnits="userSpaceOnUse"
       id="clipPath945"><path
         d="M 4254.74,1698.04 V 5319.33 H 1761.52 V 1698.04 Z"
         id="path943"
         inkscape:connector-curvature="0" /></clipPath></defs><sodipodi:namedview
     pagecolor="#ffffff"
     bordercolor="#666666"
     borderopacity="1"
     objecttolerance="10"
     gridtolerance="10"
     guidetolerance="10"
     inkscape:pageopacity="0"
     inkscape:pageshadow="2"
     inkscape:window-width="1366"
     inkscape:window-height="705"
     id="namedview817"
     showgrid="false"
     inkscape:zoom="0.49435863"
     inkscape:cx="396.66666"
     inkscape:cy="561.33337"
     inkscape:window-x="-8"
     inkscape:window-y="-8"
     inkscape:window-maximized="1"
     inkscape:current-layer="g825" /><g
     id="g823"
     inkscape:groupmode="layer"
     inkscape:label="biasvariancepdf"
     transform="matrix(1.3333333,0,0,-1.3333333,0,1122.6667)"><g
       id="g825"
       transform="scale(0.12)"><g
         id="g843"><g
           id="g845"
           clip-path="url(#clipPath849)"><path
             d="m 505,2 h 43 v 7015 h -43 z"
             style="fill:url(#linearGradient861);fill-opacity:1;fill-rule:nonzero;stroke:none"
             id="path863"
             inkscape:connector-curvature="0" /></g></g><g
         id="g939"
         transform="rotate(-90,3009.965,3508.685)"
         inkscape:export-xdpi="96"
         inkscape:export-ydpi="96"><g
           id="g941"
           clip-path="url(#clipPath945)"><path
             d="M 1778.97,1997.05 H 3971.75 V 4711.92"
             style="fill:none;stroke:#231f20;stroke-width:10.45820045;stroke-linecap:butt;stroke-linejoin:miter;stroke-miterlimit:4;stroke-dasharray:none;stroke-opacity:1"
             id="path947"
             inkscape:connector-curvature="0" /><path
             d="m 1890.78,1950.66 -125.67,46.23 125.67,46.22 c -20.07,-27.31 -19.95,-64.61 0,-92.45"
             style="fill:#231f20;fill-opacity:1;fill-rule:evenodd;stroke:none"
             id="path949"
             inkscape:connector-curvature="0" /><path
             d="m 1890.78,1950.66 -125.67,46.23 125.67,46.22 c -20.07,-27.31 -19.95,-64.61 0,-92.45 z"
             style="fill:none;stroke:#231f20;stroke-width:7.1900301;stroke-linecap:butt;stroke-linejoin:round;stroke-miterlimit:4;stroke-dasharray:none;stroke-opacity:1"
             id="path951"
             inkscape:connector-curvature="0" /><path
             d="m 3925.36,4600.14 46.22,125.7 46.24,-125.7 c -27.3,20.08 -64.62,19.97 -92.46,0"
             style="fill:#231f20;fill-opacity:1;fill-rule:evenodd;stroke:none"
             id="path953"
             inkscape:connector-curvature="0" /><path
             d="m 3925.36,4600.14 46.22,125.7 46.24,-125.7 c -27.3,20.08 -64.62,19.97 -92.46,0 z"
             style="fill:none;stroke:#231f20;stroke-width:7.1900301;stroke-linecap:butt;stroke-linejoin:round;stroke-miterlimit:4;stroke-dasharray:none;stroke-opacity:1"
             id="path955"
             inkscape:connector-curvature="0" /><path
             d="m 1987.81,2205.89 c 0,0 1135.76,515.56 1148.59,1088.17 13.49,598.93 -1148.59,1209.02 -1148.59,1209.02"
             style="fill:none;stroke:#388134;stroke-width:19.73250008;stroke-linecap:butt;stroke-linejoin:miter;stroke-miterlimit:4;stroke-dasharray:none;stroke-opacity:1"
             id="path957"
             inkscape:connector-curvature="0" /><path
             d="m 2321.94,2205.89 c 0,0 1002.19,561.84 1253.02,1044.18 193.4,371.82 208.83,1253.01 208.83,1253.01"
             style="fill:none;stroke:#ea5e1f;stroke-width:19.73250008;stroke-linecap:butt;stroke-linejoin:miter;stroke-miterlimit:4;stroke-dasharray:none;stroke-opacity:1"
             id="path959"
             inkscape:connector-curvature="0" /><path
             d="m 3867.33,2205.89 c 0,0 -70.7,1293.91 -411.2,1775.11 -240.38,339.67 -1113.31,522.08 -1113.31,522.08"
             style="fill:none;stroke:#3d4ba7;stroke-width:19.4265995;stroke-linecap:butt;stroke-linejoin:miter;stroke-miterlimit:4;stroke-dasharray:none;stroke-opacity:1"
             id="path961"
             inkscape:connector-curvature="0" /><path
             d="m 1802.31,4590.96 c 8.15,-0.6 16.75,-0.87 25.88,-0.87 h 46.33 c 17.41,0 26.98,0.44 28.72,1.3 1.74,0.88 2.61,3.97 2.61,9.36 v 6.09 h 5.22 c -0.44,-9.58 -0.66,-17.73 -0.66,-24.36 0,-6.85 0.22,-14.97 0.66,-24.37 h -5.22 v 6.75 c 0,3.59 -0.44,5.93 -1.31,6.95 -0.97,1.14 -2.88,1.86 -5.66,2.18 -6.36,0.54 -14.63,0.87 -24.79,0.87 h -46.56 c -9.13,0 -17.51,-0.22 -25.22,-0.65 v -8.27 c 0,-13.49 0.37,-20.99 1.08,-22.4 0.6,-1.31 2.99,-2.17 7.17,-2.62 l 10.89,-1.08 v -5 h -9.58 c -3.91,0 -9.56,-0.34 -16.97,-0.88 0.44,29.27 0.65,46.56 0.65,51.78 l -0.65,45.02 c 9.15,-1.02 18,-1.62 26.55,-1.74 v -5 l -10.67,-0.86 c -3.59,-0.33 -5.76,-0.77 -6.52,-1.3 -0.7,-0.61 -1.14,-1.97 -1.3,-4.14 -0.44,-5.99 -0.65,-12.72 -0.65,-20.23"
             style="fill:#388134;fill-opacity:1;fill-rule:nonzero;stroke:none"
             id="path963"
             inkscape:connector-curvature="0" /><path
             d="m 1871.91,4639.46 c -7.5,0 -14.36,1.74 -20.45,5.23 -6.09,3.47 -10.76,8.32 -14.14,14.57 -3.48,6.37 -5.22,13.55 -5.22,21.54 0,11.59 3.42,20.89 10.23,27.84 6.85,6.96 15.99,10.45 27.4,10.45 13.49,0 24.27,-4.57 32.2,-13.7 7.14,-8.16 10.67,-17.84 10.67,-29.15 0,-10.88 -3.59,-19.74 -10.89,-26.54 -7.39,-6.86 -17.3,-10.24 -29.8,-10.24 z m -5.87,15.46 c 11.21,0 20.78,2.22 28.71,6.73 8.01,4.63 11.97,11.33 11.97,20.03 0,6.52 -2.45,11.79 -7.4,15.87 -5.05,4.02 -12.67,6.09 -22.84,6.09 -8.27,0 -15.34,-1.25 -21.32,-3.69 -6.09,-2.34 -10.44,-5.44 -13.05,-9.36 -2.72,-3.91 -4.14,-8.37 -4.14,-13.27 0,-4.23 1.09,-8.05 3.28,-11.52 2.16,-3.49 5.11,-6.05 8.7,-7.62 4.94,-2.18 10.32,-3.26 16.09,-3.26"
             style="fill:#388134;fill-opacity:1;fill-rule:nonzero;stroke:none"
             id="path965"
             inkscape:connector-curvature="0" /><path
             d="m 1846.9,4755.2 h 31.98 c 8.25,0 13.58,0.26 15.87,0.86 2.34,0.56 4.13,1.64 5.44,3.28 1.31,1.74 1.97,3.8 1.97,6.3 0,1.58 -0.28,3.11 -0.88,4.57 -0.55,1.58 -1.52,3.1 -2.83,4.57 l 2.83,2.39 9.58,-8.05 c 0.54,-1.73 0.97,-3.42 1.29,-4.99 0.28,-1.65 0.45,-3.22 0.45,-4.79 0,-3.92 -0.77,-7.35 -2.19,-10.23 -1.4,-2.78 -3.31,-4.78 -5.65,-6.09 -2.29,-1.2 -5.76,-1.74 -10.44,-1.74 l -15.66,0.22 h -31.11 c 0,-4.25 0.22,-8.49 0.66,-12.84 h -3.49 c -1.84,4.63 -3.76,8.92 -5.66,12.84 -7.83,0 -16.2,-0.22 -25.23,-0.66 -2.71,6.37 -4.9,10.94 -6.53,13.71 l 1.52,2.17 c 4.36,-0.43 14.48,-0.97 30.24,-1.52 0,6.64 -0.05,12.07 -0.21,16.32 l -0.44,6.53 8.49,-0.88 -0.22,-3.48 0.22,-15.66"
             style="fill:#388134;fill-opacity:1;fill-rule:nonzero;stroke:none"
             id="path967"
             inkscape:connector-curvature="0" /><path
             d="m 1854.29,4791.2 h -11.09 l -5.23,8.93 c -2.17,3.91 -3.69,7.39 -4.56,10.44 -0.87,3.04 -1.31,6.31 -1.31,9.79 0,7.39 1.68,13.38 5.01,18.05 3.37,4.63 7.61,7.4 12.84,8.26 3.91,0.71 13.64,1.14 29.14,1.31 14.68,0 22.79,0.28 24.36,0.87 1.48,0.55 2.19,1.95 2.19,4.13 v 6.32 h 5.43 c -0.44,-6.26 -0.66,-10.55 -0.66,-12.84 0,-3.05 0.22,-7.18 0.66,-12.41 l -7.39,0.23 c -2.29,0 -4.63,-0.11 -6.97,-0.23 l 12.84,-16.74 c 1.14,-1.63 1.95,-3.17 2.39,-4.56 0.44,-1.48 0.66,-3.49 0.66,-6.11 0,-6.95 -1.74,-12.33 -5.22,-16.09 -3.48,-3.65 -8.11,-5.44 -13.92,-5.44 -5.5,0 -10.3,1.3 -14.37,3.93 -4.02,2.6 -7.02,6.3 -8.91,11.09 -2.02,4.88 -4.62,16.21 -7.84,33.92 -6.96,0 -12.07,-1.51 -15.44,-4.56 -4.36,-3.65 -6.53,-8.87 -6.53,-15.66 0,-2.62 0.37,-5.11 1.09,-7.39 0.6,-2.35 1.52,-4.47 2.82,-6.31 3.93,-1.64 7.62,-3.05 11.1,-4.36 z m 12.84,42.85 c 3.37,-15.11 6.47,-24.68 9.35,-28.69 2.78,-4.09 7.14,-6.11 13.05,-6.11 4.08,0 7.35,1.14 9.79,3.48 2.34,2.28 3.48,5.33 3.48,9.13 0,4.03 -1.09,7.9 -3.26,11.53 -2.28,3.76 -5.71,7.3 -10.22,10.66"
             style="fill:#388134;fill-opacity:1;fill-rule:nonzero;stroke:none"
             id="path969"
             inkscape:connector-curvature="0" /><path
             d="m 1789.9,4895.4 c 16,-0.86 30.35,-1.3 43.07,-1.3 h 41.98 c 16.71,0 26.11,0.33 28.29,1.1 1.2,0.25 1.89,2.05 2.17,5.42 l 0.86,6.75 h 4.8 c -0.44,-5.82 -0.66,-11.48 -0.66,-16.97 0,-5.99 0.22,-13.81 0.66,-23.5 h -4.8 l -0.63,7.19 c -0.28,3.05 -1.1,4.78 -2.4,5.21 -2.02,0.71 -11.64,1.09 -28.93,1.09 h -57.22 l -10.88,-0.43 c -2.61,0 -4.19,-0.33 -4.78,-0.88 -0.86,-0.86 -1.31,-2.71 -1.31,-5.43 v -6.75 h -4.99 c -0.98,11.32 -3.11,20.35 -6.31,27.2"
             style="fill:#388134;fill-opacity:1;fill-rule:nonzero;stroke:none"
             id="path971"
             inkscape:connector-curvature="0" /><path
             d="m 1871.47,4973.61 c 10.78,0.27 18.88,3.04 24.36,8.26 5.56,5.22 8.28,12.02 8.28,20.45 0,3.75 -0.54,7.51 -1.74,11.31 -1.31,3.76 -3.16,7.51 -5.66,11.32 l 1.31,1.3 6.74,-2.61 c 2.62,-4.51 4.56,-9.14 5.87,-13.92 1.31,-4.79 1.97,-9.73 1.97,-14.79 0,-11.04 -3.48,-19.96 -10.44,-26.76 -6.96,-6.85 -16.44,-10.23 -28.5,-10.23 -9.15,0 -17.03,1.96 -23.71,5.87 -4.36,2.45 -8.38,7.02 -12.18,13.72 -3.76,6.79 -5.67,13.37 -5.67,19.8 0,9.56 2.83,17.17 8.49,22.83 5.65,5.65 13.59,8.49 23.71,8.49 l 4.79,-0.22 c 0.87,-3.65 1.46,-7.08 1.74,-10.22 0.44,-5.82 0.64,-13.92 0.64,-24.37 z m -6.08,0.22 c 0.43,8.37 0.65,17.67 0.65,27.84 0,4.03 -0.22,7.94 -0.65,11.75 h -4.57 c -4.79,0 -9.36,-0.97 -13.71,-2.83 -2.6,-1.2 -4.78,-3.27 -6.52,-6.3 -1.74,-2.95 -2.62,-6.33 -2.62,-10.24 0,-6.08 2.29,-10.98 6.75,-14.57 4.35,-3.64 11.25,-5.54 20.67,-5.65"
             style="fill:#388134;fill-opacity:1;fill-rule:nonzero;stroke:none"
             id="path973"
             inkscape:connector-curvature="0" /><path
             d="m 1850.59,5064.43 c -2.18,2.17 -4.89,4.46 -8.26,6.96 -3.92,3.06 -6.58,5.88 -8.05,8.48 -1.41,2.62 -2.18,5.33 -2.18,8.27 0,3.05 0.33,5.33 0.87,6.97 0.44,0.7 1.04,1.08 1.74,1.08 l 0.67,-0.21 c 4.5,-0.77 10.64,-1.2 18.48,-1.31 v -3.7 c -2.72,-1.2 -4.62,-2.61 -5.65,-4.35 -1.14,-1.73 -1.75,-3.87 -1.75,-6.3 0,-3.22 1.09,-6.22 3.26,-8.93 2.18,-2.77 5.23,-4.56 9.14,-5.44 3.91,-0.86 11.64,-1.3 23.05,-1.3 7.56,0 13.88,0.27 18.94,0.87 2.06,0.11 3.26,0.65 3.69,1.52 1.19,2.18 1.73,5.21 1.73,9.14 v 5 h 4.8 c -0.44,-8.43 -0.66,-16.32 -0.66,-23.71 0,-7.29 0.22,-14.47 0.66,-21.54 h -4.8 l -0.63,7.84 c -0.28,2.88 -0.76,4.67 -1.53,5.43 -0.87,0.71 -3.54,1.14 -8.05,1.31 -7.83,0.43 -17.07,0.65 -27.85,0.65 -13.05,0 -20.71,-0.54 -23.05,-1.53 -1.42,-0.75 -2.18,-2.98 -2.18,-6.74 v -6.96 h -4.78 c -0.54,5.33 -1.31,10.07 -2.18,14.15 -0.99,4.17 -2.24,7.88 -3.7,11.09 -0.43,0.7 -0.66,1.35 -0.66,1.95 0,0.54 0.23,0.93 0.66,1.09 0.32,0.28 0.98,0.44 1.96,0.44"
             style="fill:#388134;fill-opacity:1;fill-rule:nonzero;stroke:none"
             id="path975"
             inkscape:connector-curvature="0" /><path
             d="m 1850.59,5130.34 c -2.18,2.19 -4.89,4.47 -8.26,6.96 -3.92,3.06 -6.58,5.88 -8.05,8.49 -1.41,2.6 -2.18,5.32 -2.18,8.26 0,3.04 0.33,5.33 0.87,6.96 0.44,0.71 1.04,1.1 1.74,1.1 l 0.67,-0.22 c 4.5,-0.77 10.64,-1.2 18.48,-1.31 v -3.69 c -2.72,-1.19 -4.62,-2.62 -5.65,-4.36 -1.14,-1.73 -1.75,-3.85 -1.75,-6.3 0,-3.22 1.09,-6.2 3.26,-8.93 2.18,-2.77 5.23,-4.56 9.14,-5.43 3.91,-0.87 11.64,-1.31 23.05,-1.31 7.56,0 13.88,0.27 18.94,0.87 2.06,0.11 3.26,0.65 3.69,1.52 1.19,2.18 1.73,5.23 1.73,9.14 v 5 h 4.8 c -0.44,-8.43 -0.66,-16.3 -0.66,-23.71 0,-7.29 0.22,-14.47 0.66,-21.54 h -4.8 l -0.63,7.84 c -0.28,2.88 -0.76,4.68 -1.53,5.44 -0.87,0.7 -3.54,1.14 -8.05,1.3 -7.83,0.44 -17.07,0.65 -27.85,0.65 -13.05,0 -20.71,-0.54 -23.05,-1.52 -1.42,-0.76 -2.18,-2.99 -2.18,-6.75 v -6.96 h -4.78 c -0.54,5.33 -1.31,10.06 -2.18,14.15 -0.99,4.19 -2.24,7.87 -3.7,11.09 -0.43,0.72 -0.66,1.37 -0.66,1.97 0,0.54 0.23,0.91 0.66,1.08 0.32,0.26 0.98,0.43 1.96,0.43"
             style="fill:#388134;fill-opacity:1;fill-rule:nonzero;stroke:none"
             id="path977"
             inkscape:connector-curvature="0" /><path
             d="m 1871.91,5171.02 c -7.5,0 -14.36,1.74 -20.45,5.23 -6.09,3.47 -10.76,8.32 -14.14,14.57 -3.48,6.36 -5.22,13.54 -5.22,21.53 0,11.59 3.42,20.89 10.23,27.85 6.85,6.96 15.99,10.44 27.4,10.44 13.49,0 24.27,-4.56 32.2,-13.69 7.14,-8.16 10.67,-17.86 10.67,-29.16 0,-10.87 -3.59,-19.75 -10.89,-26.54 -7.39,-6.86 -17.3,-10.23 -29.8,-10.23 z m -5.87,15.46 c 11.21,0 20.78,2.22 28.71,6.73 8.01,4.63 11.97,11.31 11.97,20.01 0,6.53 -2.45,11.81 -7.4,15.88 -5.05,4.03 -12.67,6.1 -22.84,6.1 -8.27,0 -15.34,-1.25 -21.32,-3.7 -6.09,-2.34 -10.44,-5.45 -13.05,-9.36 -2.72,-3.91 -4.14,-8.38 -4.14,-13.26 0,-4.25 1.09,-8.05 3.28,-11.54 2.16,-3.47 5.11,-6.04 8.7,-7.61 4.94,-2.17 10.32,-3.25 16.09,-3.25"
             style="fill:#388134;fill-opacity:1;fill-rule:nonzero;stroke:none"
             id="path979"
             inkscape:connector-curvature="0" /><path
             d="m 1850.59,5287.62 c -2.18,2.18 -4.89,4.46 -8.26,6.96 -3.92,3.05 -6.58,5.87 -8.05,8.5 -1.41,2.6 -2.18,5.31 -2.18,8.25 0,3.05 0.33,5.33 0.87,6.96 0.44,0.71 1.04,1.09 1.74,1.09 l 0.67,-0.21 c 4.5,-0.77 10.64,-1.2 18.48,-1.31 v -3.71 c -2.72,-1.19 -4.62,-2.6 -5.65,-4.34 -1.14,-1.74 -1.75,-3.86 -1.75,-6.31 0,-3.21 1.09,-6.2 3.26,-8.92 2.18,-2.77 5.23,-4.57 9.14,-5.43 3.91,-0.87 11.64,-1.31 23.05,-1.31 7.56,0 13.88,0.27 18.94,0.86 2.06,0.12 3.26,0.66 3.69,1.54 1.19,2.17 1.73,5.22 1.73,9.13 v 5 h 4.8 c -0.44,-8.42 -0.66,-16.32 -0.66,-23.71 0,-7.28 0.22,-14.46 0.66,-21.54 h -4.8 l -0.63,7.84 c -0.28,2.88 -0.76,4.68 -1.53,5.43 -0.87,0.71 -3.54,1.14 -8.05,1.31 -7.83,0.43 -17.07,0.65 -27.85,0.65 -13.05,0 -20.71,-0.54 -23.05,-1.51 -1.42,-0.77 -2.18,-3 -2.18,-6.75 v -6.97 h -4.78 c -0.54,5.33 -1.31,10.07 -2.18,14.15 -0.99,4.18 -2.24,7.87 -3.7,11.09 -0.43,0.71 -0.66,1.35 -0.66,1.95 0,0.54 0.23,0.94 0.66,1.1 0.32,0.27 0.98,0.43 1.96,0.43"
             style="fill:#388134;fill-opacity:1;fill-rule:nonzero;stroke:none"
             id="path981"
             inkscape:connector-curvature="0" /><path
             d="m 2251.13,4586.61 c -7.39,-2.5 -14.24,-5.01 -20.66,-7.61 l -72.88,-29.16 c -10.55,-4.23 -16.32,-6.69 -17.18,-7.39 -0.98,-0.76 -1.53,-3.05 -1.53,-6.95 v -3.49 h -5.22 c 0.44,8.54 0.66,15.88 0.66,21.97 0,6.2 -0.22,13.76 -0.66,22.63 h 5.87 v -8.06 c 0,-2.78 0.34,-4.55 0.88,-5.44 0.43,-0.86 1.25,-1.31 2.4,-1.31 0.59,0 1.29,0.12 2.16,0.45 l 28.07,10.65 56.12,21.97 -53.51,21.54 c -18.27,7.23 -28.94,10.87 -31.99,10.87 -2.45,0 -3.73,-1.52 -3.9,-4.56 l -0.23,-3.26 -0.65,-7.19 h -5.22 c 0.44,7.24 0.66,13.28 0.66,18.06 0,4.79 -0.22,10.87 -0.66,18.28 h 5.22 v -3.27 c 0,-2.6 0.59,-4.51 1.74,-5.65 1.2,-1.2 5.56,-3.26 13.06,-6.31 l 67,-27.41 c 12.62,-5.22 22.78,-8.92 30.45,-11.1"
             style="fill:#3d4ba7;fill-opacity:1;fill-rule:nonzero;stroke:none"
             id="path983"
             inkscape:connector-curvature="0" /><path
             d="m 2193.05,4662.54 h -11.09 l -5.23,8.91 c -2.16,3.92 -3.69,7.41 -4.57,10.44 -0.85,3.05 -1.3,6.31 -1.3,9.78 0,7.41 1.68,13.38 5.02,18.06 3.36,4.63 7.6,7.41 12.83,8.27 3.91,0.71 13.64,1.14 29.14,1.31 14.68,0 22.79,0.26 24.36,0.86 1.47,0.54 2.19,1.97 2.19,4.13 v 6.31 h 5.42 c -0.43,-6.25 -0.64,-10.53 -0.64,-12.83 0,-3.03 0.21,-7.17 0.64,-12.39 l -7.39,0.2 c -2.28,0 -4.62,-0.09 -6.96,-0.2 l 12.84,-16.75 c 1.14,-1.63 1.95,-3.16 2.39,-4.57 0.43,-1.48 0.66,-3.48 0.66,-6.1 0,-6.96 -1.74,-12.34 -5.23,-16.09 -3.47,-3.65 -8.1,-5.44 -13.92,-5.44 -5.5,0 -10.28,1.31 -14.36,3.9 -4.03,2.62 -7.02,6.33 -8.92,11.11 -2.02,4.89 -4.61,16.2 -7.83,33.94 -6.97,0 -12.08,-1.53 -15.44,-4.57 -4.36,-3.65 -6.53,-8.87 -6.53,-15.67 0,-2.61 0.38,-5.1 1.08,-7.4 0.61,-2.34 1.54,-4.45 2.83,-6.3 3.92,-1.64 7.62,-3.04 11.09,-4.35 z m 12.84,42.85 c 3.37,-15.12 6.47,-24.7 9.35,-28.73 2.78,-4.07 7.14,-6.08 13.05,-6.08 4.08,0 7.35,1.14 9.78,3.48 2.34,2.28 3.49,5.33 3.49,9.14 0,4.02 -1.09,7.88 -3.26,11.52 -2.28,3.76 -5.71,7.3 -10.22,10.67"
             style="fill:#3d4ba7;fill-opacity:1;fill-rule:nonzero;stroke:none"
             id="path985"
             inkscape:connector-curvature="0" /><path
             d="m 2189.35,4765.42 c -2.17,2.18 -4.89,4.47 -8.26,6.96 -3.93,3.05 -6.58,5.87 -8.05,8.5 -1.41,2.6 -2.18,5.32 -2.18,8.25 0,3.05 0.33,5.33 0.87,6.96 0.43,0.71 1.04,1.11 1.74,1.11 l 0.66,-0.23 c 4.51,-0.77 10.65,-1.2 18.49,-1.31 v -3.69 c -2.71,-1.2 -4.62,-2.61 -5.66,-4.36 -1.14,-1.74 -1.74,-3.86 -1.74,-6.31 0,-3.21 1.1,-6.19 3.26,-8.92 2.18,-2.77 5.23,-4.57 9.14,-5.43 3.91,-0.87 11.64,-1.31 23.06,-1.31 7.55,0 13.87,0.26 18.93,0.86 2.05,0.12 3.26,0.66 3.69,1.54 1.19,2.17 1.73,5.22 1.73,9.13 v 5 h 4.79 c -0.43,-8.42 -0.64,-16.31 -0.64,-23.71 0,-7.28 0.21,-14.46 0.64,-21.54 h -4.79 l -0.63,7.84 c -0.28,2.88 -0.77,4.68 -1.53,5.44 -0.87,0.69 -3.54,1.14 -8.05,1.3 -7.83,0.45 -17.07,0.65 -27.85,0.65 -13.04,0 -20.71,-0.54 -23.06,-1.51 -1.41,-0.77 -2.16,-3 -2.16,-6.76 v -6.96 h -4.79 c -0.55,5.33 -1.31,10.07 -2.18,14.15 -0.98,4.18 -2.24,7.88 -3.7,11.09 -0.43,0.71 -0.65,1.37 -0.65,1.97 0,0.54 0.22,0.92 0.65,1.08 0.32,0.27 0.98,0.43 1.96,0.43"
             style="fill:#3d4ba7;fill-opacity:1;fill-rule:nonzero;stroke:none"
             id="path987"
             inkscape:connector-curvature="0" /><path
             d="m 2134.32,4824.59 c 0,2.45 0.98,4.56 2.82,6.3 1.74,1.86 3.93,2.85 6.52,2.85 2.62,0 4.8,-0.99 6.54,-2.85 1.74,-1.74 2.6,-3.85 2.6,-6.3 0,-2.5 -0.86,-4.68 -2.6,-6.51 -1.74,-1.74 -3.92,-2.63 -6.54,-2.63 -2.59,0 -4.78,0.89 -6.52,2.63 -1.84,1.83 -2.82,4.01 -2.82,6.51 z m 36.11,6.53 1.3,1.97 c 4.09,-0.34 8.59,-0.55 13.49,-0.66 15.82,-0.43 27.57,-0.65 35.24,-0.65 6.97,0 12.99,0.26 18.06,0.86 1.89,0.11 3.26,0.56 4.14,1.31 0.75,0.87 1.24,2.88 1.52,6.1 l 0.85,5.42 h 4.79 c -0.43,-7.99 -0.64,-15.22 -0.64,-21.74 0,-6.42 0.21,-12.84 0.64,-19.37 h -4.79 l -0.85,6.96 c -0.11,2.73 -0.55,4.42 -1.31,5.02 -0.87,0.69 -3.54,1.14 -8.05,1.29 -6.8,0.27 -16.32,0.45 -28.5,0.45 -8.37,0 -14.89,-0.18 -19.58,-0.45 -1.56,-0.15 -2.71,-0.65 -3.47,-1.52 -0.72,-0.77 -1.09,-2.61 -1.09,-5.65 v -6.1 h -4.79 c -0.98,6.64 -1.86,11.53 -2.61,14.58 -0.87,3.15 -2.28,7.24 -4.35,12.18"
             style="fill:#3d4ba7;fill-opacity:1;fill-rule:nonzero;stroke:none"
             id="path989"
             inkscape:connector-curvature="0" /><path
             d="m 2193.05,4860.59 h -11.09 l -5.23,8.93 c -2.16,3.91 -3.69,7.39 -4.57,10.44 -0.85,3.05 -1.3,6.31 -1.3,9.79 0,7.39 1.68,13.38 5.02,18.05 3.36,4.63 7.6,7.4 12.83,8.28 3.91,0.69 13.64,1.14 29.14,1.29 14.68,0 22.79,0.27 24.36,0.88 1.47,0.54 2.19,1.96 2.19,4.13 v 6.31 h 5.42 c -0.43,-6.25 -0.64,-10.55 -0.64,-12.83 0,-3.06 0.21,-7.19 0.64,-12.41 l -7.39,0.22 c -2.28,0 -4.62,-0.11 -6.96,-0.22 l 12.84,-16.75 c 1.14,-1.63 1.95,-3.15 2.39,-4.57 0.43,-1.46 0.66,-3.48 0.66,-6.08 0,-6.96 -1.74,-12.35 -5.23,-16.11 -3.47,-3.64 -8.1,-5.43 -13.92,-5.43 -5.5,0 -10.28,1.31 -14.36,3.91 -4.03,2.62 -7.02,6.31 -8.92,11.1 -2.02,4.88 -4.61,16.2 -7.83,33.93 -6.97,0 -12.08,-1.52 -15.44,-4.57 -4.36,-3.63 -6.53,-8.85 -6.53,-15.66 0,-2.61 0.38,-5.11 1.08,-7.39 0.61,-2.34 1.54,-4.46 2.83,-6.31 3.92,-1.63 7.62,-3.05 11.09,-4.36 z m 12.84,42.86 c 3.37,-15.12 6.47,-24.69 9.35,-28.71 2.78,-4.08 7.14,-6.1 13.05,-6.1 4.08,0 7.35,1.14 9.78,3.48 2.34,2.28 3.49,5.33 3.49,9.15 0,4.03 -1.09,7.87 -3.26,11.53 -2.28,3.75 -5.71,7.28 -10.22,10.65"
             style="fill:#3d4ba7;fill-opacity:1;fill-rule:nonzero;stroke:none"
             id="path991"
             inkscape:connector-curvature="0" /><path
             d="m 2186.52,4961.98 -11.09,12.18 c -1.3,1.57 -2.23,3.14 -2.83,4.78 -1.14,3.59 -1.74,7.18 -1.74,10.65 0,5.77 1.25,10.77 3.71,15.01 2.33,4.36 5.38,7.4 9.12,9.14 3.82,1.85 9.69,2.82 17.63,2.82 l 25.67,-0.2 c 8.86,0 14.03,0.32 15.44,1.09 1.75,0.97 2.6,3.05 2.6,6.08 v 5.87 h 4.79 c -0.43,-5.97 -0.64,-11.04 -0.64,-15.21 0,-4.08 0.21,-8.49 0.64,-13.29 -10.7,0.99 -25.07,1.54 -43.07,1.54 -7.23,0 -12.39,-0.66 -15.44,-1.97 -3.05,-1.19 -5.49,-3.26 -7.4,-6.31 -1.84,-3.04 -2.82,-6.68 -2.82,-10.87 0,-5.39 1.41,-9.9 4.13,-13.49 2.61,-3.65 5.55,-5.87 8.71,-6.74 2.17,-0.6 7.77,-0.87 16.75,-0.87 9.89,0 19.09,0.06 27.62,0.22 2.61,0 4.24,0.32 4.79,1.09 1.31,1.4 1.94,3.7 1.94,6.74 v 5.86 h 4.79 c -0.43,-9.29 -0.64,-16.63 -0.64,-21.96 0,-5.82 0.21,-12.4 0.64,-19.8 h -4.79 v 5.87 c 0,4.03 -0.91,6.43 -2.82,7.19 -1.83,0.69 -13.15,1.09 -33.93,1.09 -9.24,0 -16.54,-0.17 -21.76,-0.44 -1.74,-0.16 -2.88,-0.6 -3.48,-1.3 -0.7,-0.77 -1.08,-2.94 -1.08,-6.54 v -5.87 h -4.8 c -0.53,4.79 -1.28,8.98 -2.17,12.61 -0.86,3.76 -2.22,7.95 -4.13,12.63 -0.27,0.43 -0.43,0.87 -0.43,1.3 0,0.87 0.65,1.31 1.96,1.31 h 3.04"
             style="fill:#3d4ba7;fill-opacity:1;fill-rule:nonzero;stroke:none"
             id="path993"
             inkscape:connector-curvature="0" /><path
             d="m 2238.07,5095.75 1.97,2.18 5.22,-3.26 c 2.07,-3.81 3.59,-7.62 4.56,-11.53 1,-3.92 1.54,-7.94 1.54,-11.97 0,-7.99 -1.54,-14.78 -4.59,-20.44 -3.03,-5.55 -7.39,-9.8 -13.04,-12.84 -5.77,-3.05 -12.66,-4.56 -20.66,-4.56 -7.07,0 -13.17,1.14 -18.28,3.48 -5.22,2.28 -9.24,5.55 -12.18,9.78 -3.05,4.18 -5.93,9.46 -8.7,15.88 -2.01,4.47 -3.05,9.41 -3.05,14.8 0,4.19 0.39,7.82 1.08,10.87 0.6,3.05 1.74,6.31 3.49,9.79 7.29,-1.31 14.48,-2.06 21.53,-2.18 v -5.21 h -3.91 c -3.48,0 -5.93,-0.54 -7.39,-1.52 -1.42,-1.05 -2.89,-3.38 -4.36,-6.97 -1.41,-3.47 -2.17,-7.35 -2.17,-11.54 0,-7.39 2.28,-13.15 6.74,-17.17 4.52,-3.92 11.26,-5.88 20.24,-5.88 11.47,0 20.6,2.93 27.4,8.93 6.26,5.21 9.36,11.95 9.36,20.22 0,3.32 -0.33,6.53 -1.09,9.57 -0.87,3.16 -2.07,6.36 -3.71,9.57"
             style="fill:#3d4ba7;fill-opacity:1;fill-rule:nonzero;stroke:none"
             id="path995"
             inkscape:connector-curvature="0" /><path
             d="m 2210.23,5123.92 c 10.78,0.28 18.88,3.05 24.36,8.28 5.56,5.21 8.28,12 8.28,20.44 0,3.75 -0.55,7.5 -1.74,11.31 -1.31,3.75 -3.16,7.5 -5.66,11.32 l 1.31,1.31 6.74,-2.62 c 2.61,-4.51 4.56,-9.13 5.87,-13.92 1.31,-4.79 1.97,-9.74 1.97,-14.79 0,-11.04 -3.48,-19.96 -10.45,-26.75 -6.95,-6.86 -16.42,-10.24 -28.5,-10.24 -9.14,0 -17.02,1.96 -23.7,5.88 -4.36,2.45 -8.39,7.01 -12.19,13.7 -3.75,6.8 -5.66,13.39 -5.66,19.79 0,9.58 2.82,17.2 8.49,22.85 5.66,5.65 13.59,8.47 23.71,8.47 l 4.79,-0.2 c 0.86,-3.65 1.47,-7.07 1.74,-10.24 0.43,-5.81 0.64,-13.92 0.64,-24.36 z m -6.08,0.22 c 0.42,8.39 0.65,17.67 0.65,27.85 0,4.02 -0.23,7.94 -0.65,11.75 h -4.57 c -4.79,0 -9.36,-0.99 -13.71,-2.83 -2.6,-1.19 -4.78,-3.27 -6.52,-6.32 -1.74,-2.92 -2.62,-6.3 -2.62,-10.22 0,-6.08 2.29,-10.98 6.75,-14.57 4.35,-3.66 11.25,-5.55 20.67,-5.66"
             style="fill:#3d4ba7;fill-opacity:1;fill-rule:nonzero;stroke:none"
             id="path997"
             inkscape:connector-curvature="0" /><path
             d="m 3768.61,4643.99 c 0.77,11.58 3.43,20.01 8.05,25.23 4.68,5.22 11.11,7.83 19.37,7.83 10.33,0 19.26,-4.35 26.76,-13.05 7.56,-8.7 11.31,-19.75 11.31,-33.07 v -6.53 c -0.33,-5.37 -0.44,-9.94 -0.44,-13.7 0,-2.77 0.11,-6.08 0.44,-10.01 l 0.22,-6.74 h -3.71 c -1.73,3.31 -3.04,5.28 -3.91,5.88 -0.88,0.54 -2.23,0.92 -4.13,1.08 -6.53,0.43 -13.92,0.66 -22.19,0.66 h -50.91 c -13.49,0 -21.15,-0.54 -23.05,-1.53 -2.02,-1.2 -3.04,-4.09 -3.04,-8.7 v -5.66 h -5.23 v 6.96 l 0.23,7.4 c 0.31,3.92 0.42,6.96 0.42,9.15 0,3.47 -0.11,10.27 -0.42,20.43 l -0.23,11.97 c 0,9.25 1.63,16.21 4.79,20.89 4.24,5.77 10.11,8.7 17.61,8.7 6.1,0 11.54,-2.13 16.31,-6.31 4.69,-4.07 8.61,-11.04 11.75,-20.88 z m -2.39,-27.19 c 0.17,2.71 0.23,5.26 0.23,7.6 0,10.72 -1.85,18.4 -5.66,23.07 -3.93,4.78 -9.41,7.17 -16.53,7.17 -6.37,0 -11.21,-1.95 -14.59,-5.88 -3.31,-3.9 -4.99,-10.15 -4.99,-18.69 0,-3.93 0.37,-8.05 1.09,-12.41 6.68,-0.6 16.75,-0.86 30.24,-0.86 z m 59.83,0 c 0.77,5.06 1.08,9.25 1.08,12.61 0,9.57 -2.49,17.02 -7.61,22.4 -5.22,5.33 -12.24,8.05 -21.1,8.05 -5.76,0 -10.54,-1.25 -14.37,-3.69 -3.9,-2.34 -6.73,-5.61 -8.47,-9.78 -1.74,-4.25 -2.61,-11 -2.61,-20.25 0,-2.77 0.1,-5.86 0.21,-9.34 h 28.93 l 10.24,0.21 c 3.8,0.11 6.62,0.22 8.47,0.22 1.48,0 3.22,-0.17 5.23,-0.43"
             style="fill:#ea5e1f;fill-opacity:1;fill-rule:nonzero;stroke:none"
             id="path999"
             inkscape:connector-curvature="0" /><path
             d="m 3718.8,4707.61 c 0,2.45 0.98,4.57 2.83,6.31 1.75,1.85 3.91,2.83 6.53,2.83 2.61,0 4.79,-0.98 6.53,-2.83 1.74,-1.74 2.6,-3.86 2.6,-6.31 0,-2.5 -0.86,-4.67 -2.6,-6.52 -1.74,-1.75 -3.92,-2.61 -6.53,-2.61 -2.62,0 -4.78,0.86 -6.53,2.61 -1.85,1.85 -2.83,4.02 -2.83,6.52 z m 36.11,6.53 1.3,1.95 c 4.08,-0.32 8.61,-0.54 13.5,-0.65 15.82,-0.44 27.57,-0.64 35.23,-0.64 6.97,0 13.01,0.26 18.06,0.86 1.91,0.11 3.27,0.54 4.13,1.31 0.77,0.87 1.26,2.89 1.53,6.08 l 0.87,5.45 h 4.79 c -0.43,-8 -0.66,-15.23 -0.66,-21.76 0,-6.4 0.23,-12.83 0.66,-19.35 h -4.79 l -0.87,6.95 c -0.11,2.72 -0.53,4.41 -1.3,5 -0.88,0.71 -3.54,1.15 -8.06,1.31 -6.8,0.28 -16.31,0.44 -28.5,0.44 -8.37,0 -14.89,-0.16 -19.57,-0.44 -1.58,-0.16 -2.72,-0.65 -3.47,-1.51 -0.71,-0.77 -1.1,-2.62 -1.1,-5.67 v -6.08 h -4.78 c -0.99,6.62 -1.85,11.52 -2.61,14.57 -0.87,3.15 -2.29,7.23 -4.36,12.18"
             style="fill:#ea5e1f;fill-opacity:1;fill-rule:nonzero;stroke:none"
             id="path1001"
             inkscape:connector-curvature="0" /><path
             d="m 3777.54,4743.62 h -11.09 l -5.23,8.93 c -2.17,3.9 -3.7,7.39 -4.56,10.44 -0.88,3.03 -1.31,6.3 -1.31,9.78 0,7.39 1.68,13.38 5,18.06 3.38,4.62 7.61,7.39 12.83,8.26 3.92,0.71 13.66,1.14 29.16,1.3 14.68,0 22.79,0.28 24.36,0.88 1.46,0.54 2.18,1.95 2.18,4.12 v 6.32 h 5.44 c -0.43,-6.26 -0.66,-10.55 -0.66,-12.83 0,-3.05 0.23,-7.18 0.66,-12.41 l -7.4,0.23 c -2.28,0 -4.62,-0.12 -6.96,-0.23 l 12.83,-16.75 c 1.14,-1.63 1.96,-3.16 2.39,-4.57 0.45,-1.47 0.65,-3.47 0.65,-6.09 0,-6.97 -1.73,-12.34 -5.22,-16.1 -3.48,-3.65 -8.09,-5.44 -13.92,-5.44 -5.48,0 -10.28,1.31 -14.35,3.93 -4.02,2.6 -7.02,6.3 -8.93,11.1 -2,4.88 -4.62,16.2 -7.82,33.92 -6.96,0 -12.07,-1.52 -15.46,-4.57 -4.34,-3.65 -6.5,-8.86 -6.5,-15.65 0,-2.63 0.37,-5.12 1.08,-7.41 0.59,-2.33 1.51,-4.46 2.82,-6.29 3.92,-1.66 7.62,-3.05 11.1,-4.36 z m 12.84,42.85 c 3.37,-15.12 6.46,-24.68 9.34,-28.71 2.79,-4.07 7.13,-6.1 13.06,-6.1 4.08,0 7.33,1.14 9.79,3.48 2.34,2.29 3.48,5.34 3.48,9.14 0,4.02 -1.09,7.89 -3.26,11.52 -2.28,3.76 -5.71,7.31 -10.24,10.67"
             style="fill:#ea5e1f;fill-opacity:1;fill-rule:nonzero;stroke:none"
             id="path1003"
             inkscape:connector-curvature="0" /><path
             d="m 3809.3,4827.8 h 5.22 c 4.25,0 6.9,0.33 8.05,1.09 1.73,1.41 3.42,4.2 5,8.27 1.64,4.18 2.39,8.48 2.39,12.84 0,5.49 -1.52,10 -4.57,13.48 -3.04,3.59 -6.57,5.44 -10.65,5.44 -3.33,0 -5.98,-1.03 -8.06,-3.05 -2.01,-2.06 -3.57,-6.03 -4.77,-11.96 -2.19,-10.77 -4.03,-17.83 -5.67,-21.32 -1.74,-3.48 -3.91,-6.09 -6.52,-7.84 -2.72,-1.73 -6.09,-2.6 -10.01,-2.6 -7.24,0 -13.1,2.6 -17.62,7.83 -4.46,5.22 -6.74,12.66 -6.74,22.4 0,7.51 1.51,15.07 4.56,22.62 3.66,-0.43 9.8,-0.8 18.5,-1.08 v -4.78 c -4.8,-0.16 -7.89,-0.65 -9.36,-1.53 -2,-1.31 -3.8,-3.65 -5.42,-6.96 -1.6,-3.2 -2.41,-6.68 -2.41,-10.45 0,-4.94 1.26,-8.9 3.69,-11.95 2.51,-2.94 5.67,-4.36 9.58,-4.36 3.65,0 6.42,1.14 8.28,3.48 1.89,2.28 3.86,8.76 5.87,19.37 1.63,7.82 3.14,12.95 4.57,15.44 1.29,2.62 3.36,4.62 6.08,6.1 2.77,1.56 5.98,2.39 9.57,2.39 7.4,0 13.82,-3.22 19.15,-9.58 5.22,-6.25 7.82,-14.58 7.82,-25.02 0,-6.68 -1.08,-14.24 -3.26,-22.62 -0.27,-1.46 -0.75,-2.17 -1.52,-2.17 l -1.3,0.22 c -0.71,0.26 -2.18,0.49 -4.36,0.65 -5.22,0.44 -9.24,0.65 -12.18,0.65 h -3.91"
             style="fill:#ea5e1f;fill-opacity:1;fill-rule:nonzero;stroke:none"
             id="path1005"
             inkscape:connector-curvature="0" /><path
             d="m 3767.26,4888.39 h -3.05 l -19.14,18.27 c -7.06,6.96 -12.89,11.59 -17.4,13.93 -4.46,2.45 -8.7,3.69 -12.62,3.69 -4.78,0 -8.54,-1.41 -11.31,-4.13 -2.88,-2.78 -4.36,-6.41 -4.36,-10.89 0,-3.03 0.54,-5.76 1.53,-8.04 0.75,-1.74 1.69,-2.99 2.83,-3.69 1.2,-0.77 4.51,-1.85 10.01,-3.27 V 4891 c -6.96,0.98 -11.98,1.57 -15.01,1.74 -2.72,2.6 -4.79,5.43 -6.1,8.48 -1.31,3.16 -1.96,6.64 -1.96,10.44 0,6.96 1.96,12.46 5.88,16.54 3.82,4.02 8.86,6.09 15.23,6.09 5.38,0 10.66,-1.9 15.88,-5.66 5.22,-3.64 11.85,-9.73 19.8,-18.28 l 10.66,-10.21 v 19.36 c 0,8.1 -0.27,14.19 -0.87,18.26 l 0.65,0.66 c 1.89,-0.32 3.26,-0.43 4.12,-0.43 0.77,0 2.35,0.11 4.79,0.43 l 0.44,-0.66 c -0.33,-6.96 -0.44,-14.72 -0.44,-23.27 0,-9.03 0.11,-17.73 0.44,-26.1"
             style="fill:#ea5e1f;fill-opacity:1;fill-rule:nonzero;stroke:none"
             id="path1007"
             inkscape:connector-curvature="0" /><path
             d="m 4109.71,2795.85 50.47,-24.15 c 18.89,-9.14 35.41,-16.65 49.61,-22.4 v -3.28 c -4.9,-2.06 -17.4,-7.77 -37.43,-17.18 l -60.47,-29.15 h 63.09 c 14.79,0 23.23,0.54 25.23,1.74 1.9,1.14 2.83,4.79 2.83,10.88 v 3.05 h 5.22 c -0.44,-7.72 -0.65,-13.88 -0.65,-18.5 0,-3.48 0.21,-10.33 0.65,-20.45 h -5.22 v 5.22 c 0,3.59 -0.49,5.98 -1.52,7.18 -0.97,1.14 -2.88,1.85 -5.66,2.18 -7.66,0.71 -15.88,1.08 -24.58,1.08 h -46.33 c -10.99,0 -18.34,-0.21 -21.97,-0.64 -1.85,-0.33 -3.27,-1.19 -4.14,-2.62 -0.98,-1.31 -1.52,-4.02 -1.52,-8.04 v -4.36 h -5.23 c 0.45,9.41 0.66,15.34 0.66,17.84 0,3.05 -0.21,7.45 -0.66,13.28 14.69,6.52 30.79,14.03 48.3,22.61 l 44.16,21.55 -40.89,19.8 c -14.2,6.96 -31.38,14.84 -51.57,23.71 0.45,6.79 0.66,11.58 0.66,14.35 0,3.31 -0.21,9.13 -0.66,17.4 h 5.23 v -5.22 c 0,-4.78 0.81,-7.78 2.39,-8.93 1.64,-1.02 7.56,-1.51 17.84,-1.51 h 59.61 c 13.38,0 21.05,0.54 23.05,1.74 1.9,1.14 2.83,4.25 2.83,9.36 v 4.56 h 5.22 c -0.44,-7.56 -0.65,-14.75 -0.65,-21.54 0,-7.72 0.21,-15.66 0.65,-23.93 h -5.22 v 5.22 c 0,4.36 -0.93,6.96 -2.83,7.84 -1.85,0.87 -9.89,1.31 -24.14,1.31"
             style="fill:#231f20;fill-opacity:1;fill-rule:nonzero;stroke:none"
             id="path1009"
             inkscape:connector-curvature="0" /><path
             d="m 4169.11,2836.3 c -7.5,0 -14.37,1.75 -20.45,5.23 -6.11,3.48 -10.76,8.31 -14.14,14.58 -3.49,6.36 -5.23,13.53 -5.23,21.53 0,11.59 3.42,20.89 10.23,27.85 6.86,6.96 15.99,10.44 27.4,10.44 13.49,0 24.27,-4.58 32.21,-13.72 7.13,-8.16 10.66,-17.83 10.66,-29.15 0,-10.87 -3.59,-19.74 -10.88,-26.53 -7.4,-6.85 -17.3,-10.23 -29.8,-10.23 z m -5.88,15.45 c 11.21,0 20.78,2.23 28.71,6.75 8.01,4.62 11.97,11.3 11.97,20 0,6.54 -2.45,11.81 -7.4,15.89 -5.05,4.02 -12.67,6.09 -22.84,6.09 -8.26,0 -15.34,-1.26 -21.31,-3.69 -6.09,-2.34 -10.45,-5.44 -13.06,-9.36 -2.71,-3.93 -4.14,-8.38 -4.14,-13.27 0,-4.25 1.09,-8.05 3.28,-11.54 2.17,-3.48 5.11,-6.02 8.7,-7.6 4.94,-2.18 10.33,-3.27 16.09,-3.27"
             style="fill:#231f20;fill-opacity:1;fill-rule:nonzero;stroke:none"
             id="path1011"
             inkscape:connector-curvature="0" /><path
             d="m 4134.3,2991.41 h -29.59 c -3.47,0 -5.66,-0.38 -6.52,-1.09 -0.87,-0.76 -1.31,-2.5 -1.31,-5.22 v -6.96 h -4.79 c -0.69,9.68 -2.71,18.71 -6.08,26.98 l 1.08,1.52 c 5.56,-0.44 12.18,-0.76 20.02,-0.87 l 21.75,-0.44 6.96,-0.21 h 48.73 c 9.03,0 14.09,0.26 15.23,0.86 1.46,0.88 2.39,3.11 2.83,6.75 l 0.66,5.88 h 4.99 c -0.6,-6.7 -0.86,-12.63 -0.86,-17.85 0,-0.87 0.26,-4.29 0.86,-10.22 -3.74,0.43 -9.02,0.71 -15.87,0.87 3.63,-4.67 8.7,-10.55 15.22,-17.62 1.41,-4.68 2.18,-8.7 2.18,-12.18 0,-9.3 -3.38,-17.08 -10.24,-23.28 -6.95,-6.1 -16.2,-9.13 -27.84,-9.13 -7.22,0 -13.38,1.14 -18.49,3.48 -5.05,2.43 -8.76,5.33 -11.09,8.7 -2.28,3.32 -5.28,8.48 -8.92,15.44 -2.61,5.34 -3.92,10.34 -3.92,15.01 0,3.05 0.45,6.15 1.31,9.36 0.76,3.31 1.97,6.73 3.7,10.22 z m 13.92,0 c -3.92,-3.8 -6.84,-7.72 -8.92,-11.75 -2,-3.92 -3.05,-8.16 -3.05,-12.62 0,-7.12 2.63,-12.83 7.84,-17.18 5.11,-4.35 12.62,-6.53 22.62,-6.53 10.34,0 18.38,2.45 24.15,7.41 5.65,5.05 8.49,11.13 8.49,18.26 0,4.36 -1.14,8.33 -3.49,11.96 -2.45,3.59 -5.54,6.21 -9.34,7.84 -3.93,1.74 -10.02,2.61 -18.29,2.61"
             style="fill:#231f20;fill-opacity:1;fill-rule:nonzero;stroke:none"
             id="path1013"
             inkscape:connector-curvature="0" /><path
             d="m 4168.66,3044.17 c 10.78,0.27 18.88,3.03 24.37,8.25 5.55,5.22 8.27,12.03 8.27,20.46 0,3.76 -0.54,7.5 -1.75,11.32 -1.3,3.74 -3.14,7.5 -5.64,11.3 l 1.3,1.31 6.74,-2.61 c 2.62,-4.52 4.57,-9.14 5.87,-13.93 1.32,-4.77 1.97,-9.73 1.97,-14.78 0,-11.04 -3.49,-19.97 -10.44,-26.76 -6.96,-6.85 -16.43,-10.23 -28.5,-10.23 -9.14,0 -17.03,1.95 -23.71,5.87 -4.36,2.45 -8.38,7.02 -12.18,13.71 -3.76,6.8 -5.67,13.38 -5.67,19.8 0,9.57 2.82,17.18 8.49,22.83 5.66,5.67 13.6,8.49 23.71,8.49 l 4.79,-0.22 c 0.87,-3.64 1.47,-7.07 1.74,-10.22 0.44,-5.81 0.64,-13.92 0.64,-24.37 z m -6.08,0.21 c 0.44,8.38 0.65,17.68 0.65,27.84 0,4.03 -0.21,7.94 -0.65,11.75 h -4.56 c -4.8,0 -9.36,-0.97 -13.72,-2.83 -2.6,-1.19 -4.78,-3.27 -6.52,-6.3 -1.74,-2.93 -2.62,-6.31 -2.62,-10.23 0,-6.09 2.29,-10.99 6.75,-14.58 4.36,-3.64 11.25,-5.54 20.67,-5.65"
             style="fill:#231f20;fill-opacity:1;fill-rule:nonzero;stroke:none"
             id="path1015"
             inkscape:connector-curvature="0" /><path
             d="m 4087.09,3136.3 c 16,-0.89 30.35,-1.31 43.07,-1.31 h 41.99 c 16.7,0 26.1,0.31 28.28,1.08 1.2,0.28 1.9,2.07 2.18,5.44 l 0.86,6.74 h 4.79 c -0.44,-5.82 -0.65,-11.47 -0.65,-16.97 0,-5.97 0.21,-13.81 0.65,-23.48 h -4.79 l -0.64,7.16 c -0.28,3.05 -1.1,4.79 -2.4,5.23 -2.02,0.7 -11.63,1.1 -28.92,1.1 h -57.23 l -10.87,-0.45 c -2.62,0 -4.2,-0.32 -4.78,-0.86 -0.87,-0.88 -1.31,-2.72 -1.31,-5.45 v -6.73 h -5 c -0.98,11.3 -3.11,20.34 -6.31,27.19"
             style="fill:#231f20;fill-opacity:1;fill-rule:nonzero;stroke:none"
             id="path1017"
             inkscape:connector-curvature="0" /><path
             d="m 4196.51,3260.39 1.96,2.18 5.22,-3.26 c 2.08,-3.81 3.59,-7.61 4.57,-11.52 0.99,-3.93 1.53,-7.95 1.53,-11.98 0,-7.99 -1.53,-14.78 -4.58,-20.45 -3.04,-5.54 -7.39,-9.79 -13.05,-12.82 -5.76,-3.05 -12.66,-4.59 -20.65,-4.59 -7.08,0 -13.18,1.15 -18.29,3.49 -5.21,2.28 -9.24,5.55 -12.18,9.8 -3.05,4.17 -5.93,9.45 -8.7,15.87 -2.01,4.45 -3.05,9.41 -3.05,14.8 0,4.18 0.39,7.82 1.09,10.87 0.59,3.05 1.73,6.31 3.48,9.79 7.3,-1.31 14.48,-2.06 21.54,-2.18 v -5.21 h -3.92 c -3.47,0 -5.93,-0.54 -7.39,-1.54 -1.42,-1.03 -2.88,-3.36 -4.36,-6.95 -1.41,-3.49 -2.16,-7.34 -2.16,-11.53 0,-7.4 2.28,-13.16 6.73,-17.18 4.52,-3.92 11.27,-5.87 20.24,-5.87 11.48,0 20.61,2.93 27.4,8.92 6.27,5.22 9.36,11.96 9.36,20.22 0,3.32 -0.33,6.54 -1.09,9.57 -0.86,3.16 -2.06,6.36 -3.7,9.57"
             style="fill:#231f20;fill-opacity:1;fill-rule:nonzero;stroke:none"
             id="path1019"
             inkscape:connector-curvature="0" /><path
             d="m 4169.11,3274.21 c -7.5,0 -14.37,1.74 -20.45,5.22 -6.11,3.48 -10.76,8.32 -14.14,14.57 -3.49,6.37 -5.23,13.54 -5.23,21.55 0,11.58 3.42,20.88 10.23,27.84 6.86,6.96 15.99,10.44 27.4,10.44 13.49,0 24.27,-4.57 32.21,-13.71 7.13,-8.16 10.66,-17.84 10.66,-29.14 0,-10.89 -3.59,-19.74 -10.88,-26.55 -7.4,-6.85 -17.3,-10.22 -29.8,-10.22 z m -5.88,15.43 c 11.21,0 20.78,2.24 28.71,6.77 8.01,4.61 11.97,11.29 11.97,20 0,6.53 -2.45,11.8 -7.4,15.89 -5.05,4.01 -12.67,6.08 -22.84,6.08 -8.26,0 -15.34,-1.26 -21.31,-3.69 -6.09,-2.34 -10.45,-5.44 -13.06,-9.36 -2.71,-3.91 -4.14,-8.38 -4.14,-13.27 0,-4.24 1.09,-8.05 3.28,-11.52 2.17,-3.49 5.11,-6.04 8.7,-7.62 4.94,-2.18 10.33,-3.28 16.09,-3.28"
             style="fill:#231f20;fill-opacity:1;fill-rule:nonzero;stroke:none"
             id="path1021"
             inkscape:connector-curvature="0" /><path
             d="m 4143.86,3391.03 -9.78,11.08 c -1.41,1.75 -2.51,3.53 -3.26,5.44 -0.99,2.89 -1.53,5.71 -1.53,8.49 0,6.1 1.2,11 3.48,14.8 2.19,3.74 6.11,7.18 11.75,10.21 l -9.56,10.45 c -1.58,1.85 -2.85,4.13 -3.7,6.75 -1.31,3.31 -1.97,6.57 -1.97,9.79 0,4.88 1.2,9.35 3.48,13.26 2.34,4.03 5.34,7.02 8.93,8.93 3.64,2 8.59,3.03 14.78,3.03 l 31.98,-0.43 c 7.13,0 11.32,0.43 12.63,1.31 1.29,0.86 2.06,2.94 2.18,6.31 l 0.2,5.87 h 4.79 l -0.21,-3.91 c -0.44,-6.27 -0.65,-10.55 -0.65,-12.84 0,-3.37 0.26,-7.35 0.86,-11.96 -10.01,0.87 -21.63,1.3 -35.01,1.3 -11.33,0 -18.72,-0.55 -22.2,-1.52 -3.48,-1.04 -6.19,-2.94 -8.27,-5.66 -2.01,-2.78 -3.05,-6.26 -3.05,-10.44 0,-4.79 1.31,-8.86 3.93,-12.18 2.49,-3.38 5.43,-5.44 8.91,-6.31 2.34,-0.6 11.92,-0.87 28.72,-0.87 10,0 15.78,0.06 17.18,0.21 1.31,0.28 2.29,0.76 2.83,1.53 0.6,0.71 1.08,3.05 1.53,6.96 l 0.64,5.43 h 4.79 c -0.6,-9.56 -0.86,-16.63 -0.86,-21.09 0,-3.65 0.26,-10.61 0.86,-20.88 h -4.79 v 5.42 c 0,3.17 -0.43,5.29 -1.3,6.33 -0.98,0.97 -3.26,1.57 -6.75,1.74 -8.79,0.43 -18.1,0.64 -27.84,0.64 -8.54,0 -14.47,-0.6 -17.84,-1.74 -3.31,-1.18 -5.92,-3.2 -7.83,-6.09 -1.84,-2.77 -2.83,-6.09 -2.83,-10.01 0,-4.22 1.19,-8.04 3.47,-11.52 2.35,-3.37 5.19,-5.6 8.5,-6.74 2.34,-0.88 8.81,-1.32 19.36,-1.32 11.75,0 20.39,0.06 25.89,0.23 2.5,0.1 4.08,0.54 4.79,1.3 0.75,0.71 1.29,3.04 1.74,6.96 l 0.64,5.66 h 4.79 c -0.44,-6.86 -0.65,-13.22 -0.65,-19.14 0,-6.96 0.21,-14.46 0.65,-22.42 h -4.79 v 6.11 c 0,3.59 -0.92,5.75 -2.83,6.51 -1.84,0.71 -12.07,1.1 -30.67,1.1 -13.59,0 -21.59,-0.17 -23.93,-0.45 -2.43,-0.15 -3.97,-0.6 -4.57,-1.29 -0.7,-0.76 -1.08,-3.05 -1.08,-6.97 v -5.01 h -4.57 c -1.14,7.96 -2.66,14.86 -4.56,20.68 l -2.18,5.86 c 0,0.99 0.66,1.53 1.95,1.53 l 2.83,-0.22 c 3.05,-0.17 6.41,-0.21 10,-0.21"
             style="fill:#231f20;fill-opacity:1;fill-rule:nonzero;stroke:none"
             id="path1023"
             inkscape:connector-curvature="0" /><path
             d="m 4145.83,3538.74 -10.23,11.52 c -2.44,2.88 -4.03,5.28 -4.78,7.19 -0.99,3.31 -1.53,7.07 -1.53,11.3 0,9.69 2.99,17.51 8.92,23.5 5.99,5.92 13.7,8.91 23.28,8.91 4.68,0 9.3,-0.66 13.92,-1.95 4.68,-1.31 8.43,-2.99 11.31,-5.01 2.94,-1.9 5.33,-4.08 7.19,-6.51 0.76,-0.89 2.93,-4.25 6.52,-10.02 l 2.4,-3.27 c 2.94,-4.08 4.78,-7.39 5.65,-9.99 0.87,-2.51 1.31,-5.39 1.31,-8.71 0,-2.5 -0.39,-5.16 -1.1,-8.05 -0.75,-2.78 -1.78,-5.76 -3.26,-8.91 h 11.53 c 11.86,0 20.23,0.11 25.02,0.42 2.17,0.29 3.7,1 4.57,2.18 0.98,1.14 1.52,3.7 1.52,7.61 v 4.36 h 4.57 c -0.44,-10.33 -0.65,-17.83 -0.65,-22.62 0,-5.23 0.21,-11.98 0.65,-20.24 h -4.57 v 6.09 c 0,4.19 -0.98,6.64 -2.83,7.4 -1.74,0.7 -11.31,1.1 -28.71,1.1 h -50.04 c -8.7,0 -15.44,-0.23 -20.22,-0.66 -2.18,-0.17 -3.6,-0.65 -4.36,-1.53 -0.87,-0.86 -1.3,-2.83 -1.3,-5.88 v -6.52 h -5.01 c -0.7,7.66 -2.22,15.13 -4.57,22.41 l -1.95,5 c 0,0.88 0.75,1.3 2.18,1.3 l 8.7,-0.21 z m 44.82,0 c 3.9,3.47 6.68,6.96 8.26,10.44 1.64,3.48 2.39,7.23 2.39,11.3 0,8.55 -3.15,15.07 -9.57,19.59 -6.52,4.62 -14.2,6.96 -23.07,6.96 -6.08,0 -11.19,-1.08 -15.44,-3.27 -4.19,-2.06 -7.5,-5.12 -10.01,-9.13 -2.44,-3.92 -3.69,-8.22 -3.69,-12.84 0,-3.37 0.66,-6.63 1.95,-9.79 1.31,-3.05 3.16,-5.76 5.44,-8.05 2.35,-2.34 4.52,-3.79 6.54,-4.35 1.46,-0.6 5.33,-0.86 11.52,-0.86"
             style="fill:#231f20;fill-opacity:1;fill-rule:nonzero;stroke:none"
             id="path1025"
             inkscape:connector-curvature="0" /><path
             d="m 4087.09,3640.11 c 16,-0.87 30.35,-1.31 43.07,-1.31 h 41.99 c 16.7,0 26.1,0.33 28.28,1.09 1.2,0.26 1.9,2.06 2.18,5.43 l 0.86,6.76 h 4.79 c -0.44,-5.83 -0.65,-11.49 -0.65,-16.97 0,-5.99 0.21,-13.81 0.65,-23.5 h -4.79 l -0.64,7.18 c -0.28,3.05 -1.1,4.79 -2.4,5.21 -2.02,0.72 -11.63,1.1 -28.92,1.1 h -57.23 l -10.87,-0.44 c -2.62,0 -4.2,-0.33 -4.78,-0.87 -0.87,-0.87 -1.31,-2.72 -1.31,-5.43 v -6.75 h -5 c -0.98,11.31 -3.11,20.34 -6.31,27.19"
             style="fill:#231f20;fill-opacity:1;fill-rule:nonzero;stroke:none"
             id="path1027"
             inkscape:connector-curvature="0" /><path
             d="m 4168.66,3676.54 c 10.78,0.27 18.88,3.05 24.37,8.26 5.55,5.23 8.27,12.02 8.27,20.46 0,3.74 -0.54,7.5 -1.75,11.3 -1.3,3.76 -3.14,7.51 -5.64,11.32 l 1.3,1.32 6.74,-2.63 c 2.62,-4.51 4.57,-9.13 5.87,-13.91 1.32,-4.8 1.97,-9.74 1.97,-14.79 0,-11.04 -3.49,-19.97 -10.44,-26.76 -6.96,-6.86 -16.43,-10.24 -28.5,-10.24 -9.14,0 -17.03,1.97 -23.71,5.88 -4.36,2.45 -8.38,7.02 -12.18,13.71 -3.76,6.79 -5.67,13.39 -5.67,19.8 0,9.57 2.82,17.18 8.49,22.84 5.66,5.65 13.6,8.49 23.71,8.49 l 4.79,-0.23 c 0.87,-3.65 1.47,-7.07 1.74,-10.22 0.44,-5.81 0.64,-13.92 0.64,-24.36 z m -6.08,0.22 c 0.44,8.38 0.65,17.68 0.65,27.85 0,4.02 -0.21,7.93 -0.65,11.75 h -4.56 c -4.8,0 -9.36,-0.99 -13.72,-2.83 -2.6,-1.2 -4.78,-3.28 -6.52,-6.31 -1.74,-2.93 -2.62,-6.31 -2.62,-10.23 0,-6.09 2.29,-10.99 6.75,-14.58 4.36,-3.63 11.25,-5.54 20.67,-5.65"
             style="fill:#231f20;fill-opacity:1;fill-rule:nonzero;stroke:none"
             id="path1029"
             inkscape:connector-curvature="0" /><path
             d="m 4137.13,3740.39 -7.61,15.66 c 1.45,3.33 3.42,6.15 5.87,8.49 4.07,3.59 12.72,9.4 25.88,17.41 -9.41,6.95 -19.57,14.13 -30.45,21.53 0.44,2.17 0.65,3.91 0.65,5.22 0,1.15 -0.21,3.52 -0.65,7.17 h 5 c 0.17,-2.93 1.03,-5.22 2.62,-6.96 2.49,-2.94 11.63,-10.77 27.4,-23.49 10.88,7.4 19.54,13.53 25.89,18.49 4.51,3.32 7.29,5.98 8.26,8.05 0.77,1.31 1.1,3.37 1.1,6.31 h 4.77 c 1.21,-5.12 2.62,-10.56 4.36,-16.32 -2.07,-2.77 -4.19,-5.11 -6.53,-6.96 -1.58,-1.31 -10.49,-7.33 -26.76,-18.06 6.25,-5.11 11.32,-9.02 15.23,-11.73 3.8,-2.79 9.14,-6.33 16.1,-10.67 -0.44,-2.17 -0.65,-4.24 -0.65,-6.1 0,-2.06 0.21,-4.72 0.65,-8.04 h -4.99 c 0,2.72 -0.23,4.61 -0.66,5.66 -0.54,0.98 -3.26,3.69 -8.06,8.05 -7.06,6.2 -14.67,12.61 -22.84,19.15 -15.06,-10.19 -23.93,-16.75 -26.54,-19.8 -2.62,-2.95 -3.9,-6.05 -3.9,-9.36 0,-1.03 0.14,-2.29 0.43,-3.7"
             style="fill:#231f20;fill-opacity:1;fill-rule:nonzero;stroke:none"
             id="path1031"
             inkscape:connector-curvature="0" /><path
             d="m 4092.75,3846.76 c 0,2.45 0.98,4.57 2.82,6.31 1.75,1.85 3.93,2.82 6.53,2.82 2.61,0 4.79,-0.97 6.53,-2.82 1.75,-1.74 2.6,-3.86 2.6,-6.31 0,-2.5 -0.85,-4.67 -2.6,-6.52 -1.74,-1.74 -3.92,-2.61 -6.53,-2.61 -2.6,0 -4.78,0.87 -6.53,2.61 -1.84,1.85 -2.82,4.02 -2.82,6.52 z m 36.11,6.54 1.3,1.95 c 4.09,-0.33 8.6,-0.55 13.5,-0.66 15.81,-0.43 27.56,-0.64 35.24,-0.64 6.96,0 12.99,0.26 18.06,0.86 1.89,0.11 3.25,0.55 4.13,1.31 0.75,0.87 1.24,2.88 1.52,6.08 l 0.86,5.45 h 4.79 c -0.44,-7.99 -0.65,-15.23 -0.65,-21.76 0,-6.4 0.21,-12.82 0.65,-19.35 h -4.79 l -0.86,6.96 c -0.11,2.71 -0.54,4.39 -1.31,5 -0.87,0.7 -3.53,1.14 -8.05,1.3 -6.79,0.27 -16.32,0.44 -28.5,0.44 -8.37,0 -14.89,-0.17 -19.58,-0.44 -1.56,-0.16 -2.71,-0.65 -3.47,-1.51 -0.71,-0.77 -1.09,-2.62 -1.09,-5.67 v -6.08 h -4.79 c -0.97,6.62 -1.85,11.52 -2.61,14.57 -0.87,3.15 -2.28,7.23 -4.35,12.19"
             style="fill:#231f20;fill-opacity:1;fill-rule:nonzero;stroke:none"
             id="path1033"
             inkscape:connector-curvature="0" /><path
             d="m 4144.09,3901.26 h 31.98 c 8.25,0 13.59,0.28 15.87,0.88 2.34,0.54 4.13,1.62 5.44,3.25 1.32,1.75 1.97,3.81 1.97,6.31 0,1.57 -0.28,3.1 -0.88,4.57 -0.54,1.57 -1.51,3.1 -2.82,4.57 l 2.82,2.39 9.58,-8.05 c 0.54,-1.74 0.97,-3.43 1.3,-5 0.28,-1.64 0.44,-3.21 0.44,-4.79 0,-3.91 -0.77,-7.34 -2.18,-10.22 -1.41,-2.78 -3.32,-4.78 -5.66,-6.09 -2.29,-1.2 -5.76,-1.74 -10.44,-1.74 l -15.66,0.22 h -31.1 c 0,-4.25 0.21,-8.5 0.65,-12.84 h -3.49 c -1.84,4.63 -3.75,8.91 -5.66,12.84 -7.82,0 -16.2,-0.22 -25.23,-0.66 -2.72,6.37 -4.89,10.94 -6.52,13.71 l 1.52,2.17 c 4.36,-0.43 14.47,-0.98 30.23,-1.52 0,6.63 -0.05,12.07 -0.21,16.32 l -0.44,6.53 8.49,-0.88 -0.23,-3.48 0.23,-15.66"
             style="fill:#231f20;fill-opacity:1;fill-rule:nonzero;stroke:none"
             id="path1035"
             inkscape:connector-curvature="0" /><path
             d="m 4251.99,3929.87 -12.83,3.69 v 1.96 c 1.73,1.43 3.04,2.88 3.91,4.34 0.87,1.43 1.31,2.94 1.31,4.59 0,3.31 -1.69,6.36 -5,9.13 -3.22,2.72 -12.3,7.02 -27.21,12.83 -6.2,-2.5 -18.26,-7.29 -36.1,-14.36 l -18.71,-7.6 -14.15,-6.11 c -5.05,-1.9 -7.61,-4.73 -7.61,-8.47 v -3.28 h -4.78 c 0.44,5.67 0.65,10.67 0.65,15.02 0,3.32 -0.21,11.14 -0.65,23.5 h 4.78 v -6.1 c 0,-2.06 0.39,-3.58 1.1,-4.56 0.75,-0.87 1.62,-1.31 2.6,-1.31 0.88,0 2.77,0.5 5.66,1.52 15.11,5.49 31.26,11.96 48.51,19.37 -15.77,7.22 -31.01,13.47 -45.69,18.7 -4.34,1.58 -6.96,2.39 -7.82,2.39 -1.75,0 -2.89,-1.85 -3.49,-5.42 l -0.87,-6.1 h -4.78 c 0.44,6.35 0.65,12.06 0.65,17.18 0,4.61 -0.21,9.35 -0.65,14.14 h 4.78 v -2.82 c 0,-1.21 0.39,-2.4 1.1,-3.71 0.75,-1.3 1.74,-2.39 3.03,-3.25 2.79,-1.75 13.38,-6.75 31.78,-15.01 5.1,-2.34 18.81,-8.22 41.1,-17.63 18.81,-8.27 29.15,-12.94 30.89,-13.92 3.59,-2.18 6.36,-4.94 8.27,-8.28 2.01,-3.19 3.05,-6.73 3.05,-10.65 0,-1.62 -0.32,-3.26 -0.88,-5.01 -0.43,-1.63 -1.09,-3.19 -1.95,-4.77"
             style="fill:#231f20;fill-opacity:1;fill-rule:nonzero;stroke:none"
             id="path1037"
             inkscape:connector-curvature="0" /><path
             d="m 3094.96,1758.67 v 20.03 l -0.21,11.52 c 0,7.13 -0.06,12.35 -0.23,15.67 -7.93,0.59 -16.42,0.87 -25.45,0.87 -6.1,0 -11.2,-0.28 -15.44,-0.87 -2.61,-0.27 -5.44,-0.93 -8.49,-1.97 -1.31,-4.77 -2.66,-10.76 -4.13,-18.04 h -5.44 c 1.47,11.9 2.18,19.89 2.18,23.92 l -0.23,3.7 c 6.42,0.55 12.58,0.86 18.5,0.86 l 12.83,-0.2 c 14.26,-0.44 24.59,-0.66 31.11,-0.66 6.43,0 14.9,0.22 25.45,0.66 v -5.23 h -2.61 c -4.62,0 -7.5,-0.43 -8.7,-1.31 -1.29,-0.97 -2.18,-3.14 -2.6,-6.52 -0.43,-3.49 -0.66,-11.1 -0.66,-22.84 v -44.81 c 0,-7.24 0.23,-13.16 0.66,-17.84 0.32,-4.79 0.65,-7.61 1.08,-8.49 0.44,-0.87 1.04,-1.51 1.74,-1.95 0.77,-0.54 3.06,-0.99 6.96,-1.31 l 6.31,-0.65 v -5.22 h -8.7 l -8.7,0.22 c -4.89,0.32 -8.59,0.43 -11.1,0.43 l -31.32,-0.43 -14.79,-0.22 c -5.07,0 -10.23,0.22 -15.46,0.65 2.19,6.53 3.39,14.9 3.49,25.02 h 5.66 c 0,-5.93 0.32,-10.87 0.87,-14.8 6.42,-2.44 14.29,-3.69 23.71,-3.69 7.39,0 15.17,0.38 23.27,1.08 0,5.11 0.11,10.17 0.23,15.24 l 0.21,12.62 v 16.52 c -5.32,0.33 -10.11,0.44 -14.36,0.44 -12.89,0 -20.22,-0.44 -21.97,-1.31 -1.74,-0.87 -2.61,-3.59 -2.61,-8.26 v -5.45 h -5.44 c 0.33,8.27 0.44,14.91 0.44,19.8 0,5.12 -0.11,11.2 -0.44,18.28 h 5.44 v -4.79 c 0,-5.22 1.04,-8.37 3.05,-9.57 2.07,-1.14 9.24,-1.74 21.53,-1.74 4.68,0 9.47,0.22 14.36,0.64"
             style="fill:#231f20;fill-opacity:1;fill-rule:nonzero;stroke:none"
             id="path1039"
             inkscape:connector-curvature="0" /><path
             d="m 2998.7,1753.68 c -2.18,-2.18 -4.46,-4.89 -6.97,-8.27 -3.03,-3.91 -5.87,-6.57 -8.47,-8.05 -2.62,-1.4 -5.34,-2.17 -8.27,-2.17 -3.05,0 -5.33,0.31 -6.97,0.86 -0.7,0.45 -1.08,1.05 -1.08,1.74 l 0.22,0.66 c 0.75,4.52 1.2,10.66 1.3,18.48 h 3.7 c 1.2,-2.71 2.62,-4.62 4.36,-5.65 1.74,-1.14 3.86,-1.74 6.3,-1.74 3.2,0 6.2,1.09 8.91,3.27 2.79,2.18 4.57,5.22 5.45,9.14 0.86,3.91 1.31,11.64 1.31,23.05 0,7.56 -0.28,13.87 -0.88,18.92 -0.11,2.08 -0.65,3.28 -1.52,3.7 -2.17,1.2 -5.21,1.74 -9.13,1.74 h -5.01 v 4.8 c 8.43,-0.44 16.32,-0.66 23.71,-0.66 7.3,0 14.47,0.22 21.54,0.66 v -4.8 l -7.82,-0.65 c -2.89,-0.26 -4.69,-0.75 -5.46,-1.51 -0.71,-0.89 -1.14,-3.54 -1.3,-8.05 -0.43,-7.85 -0.66,-17.09 -0.66,-27.85 0,-13.05 0.55,-20.73 1.54,-23.07 0.75,-1.4 2.99,-2.17 6.73,-2.17 h 6.97 v -4.79 c -5.34,-0.54 -10.06,-1.29 -14.13,-2.17 -4.19,-0.98 -7.9,-2.23 -11.11,-3.69 -0.7,-0.45 -1.35,-0.66 -1.95,-0.66 -0.55,0 -0.92,0.21 -1.1,0.66 -0.27,0.32 -0.42,0.98 -0.42,1.95"
             style="fill:#231f20;fill-opacity:1;fill-rule:nonzero;stroke:none"
             id="path1041"
             inkscape:connector-curvature="0" /><path
             d="m 2932.79,1753.68 c -2.17,-2.18 -4.46,-4.89 -6.97,-8.27 -3.04,-3.91 -5.87,-6.57 -8.47,-8.05 -2.62,-1.4 -5.33,-2.17 -8.27,-2.17 -3.05,0 -5.33,0.31 -6.96,0.86 -0.71,0.45 -1.09,1.05 -1.09,1.74 l 0.21,0.66 c 0.77,4.52 1.2,10.66 1.31,18.48 h 3.7 c 1.2,-2.71 2.61,-4.62 4.35,-5.65 1.73,-1.14 3.86,-1.74 6.3,-1.74 3.22,0 6.21,1.09 8.92,3.27 2.78,2.18 4.57,5.22 5.45,9.14 0.86,3.91 1.3,11.64 1.3,23.05 0,7.56 -0.27,13.87 -0.87,18.92 -0.11,2.08 -0.65,3.28 -1.53,3.7 -2.17,1.2 -5.22,1.74 -9.13,1.74 h -5 v 4.8 c 8.42,-0.44 16.32,-0.66 23.71,-0.66 7.28,0 14.46,0.22 21.54,0.66 v -4.8 l -7.84,-0.65 c -2.88,-0.26 -4.68,-0.75 -5.43,-1.51 -0.71,-0.89 -1.14,-3.54 -1.31,-8.05 -0.43,-7.85 -0.65,-17.09 -0.65,-27.85 0,-13.05 0.54,-20.73 1.51,-23.07 0.77,-1.4 3,-2.17 6.75,-2.17 h 6.97 v -4.79 c -5.33,-0.54 -10.07,-1.29 -14.15,-2.17 -4.19,-0.98 -7.87,-2.23 -11.09,-3.69 -0.7,-0.45 -1.35,-0.66 -1.95,-0.66 -0.54,0 -0.94,0.21 -1.09,0.66 -0.28,0.32 -0.44,0.98 -0.44,1.95"
             style="fill:#231f20;fill-opacity:1;fill-rule:nonzero;stroke:none"
             id="path1043"
             inkscape:connector-curvature="0" /><path
             d="m 2892.11,1774.99 c 0,-7.5 -1.74,-14.35 -5.23,-20.44 -3.47,-6.09 -8.32,-10.77 -14.57,-14.14 -6.36,-3.48 -13.54,-5.22 -21.54,-5.22 -11.58,0 -20.88,3.42 -27.85,10.22 -6.96,6.86 -10.44,16 -10.44,27.41 0,13.49 4.57,24.25 13.72,32.2 8.16,7.12 17.83,10.65 29.14,10.65 10.88,0 19.74,-3.59 26.55,-10.87 6.85,-7.39 10.22,-17.3 10.22,-29.81 z m -15.45,-5.88 c 0,11.21 -2.22,20.8 -6.75,28.73 -4.62,7.99 -11.3,11.96 -20,11.96 -6.53,0 -11.81,-2.44 -15.89,-7.39 -4.02,-5.06 -6.08,-12.67 -6.08,-22.86 0,-8.25 1.25,-15.32 3.69,-21.3 2.33,-6.09 5.44,-10.45 9.35,-13.05 3.92,-2.73 8.39,-4.14 13.27,-4.14 4.25,0 8.05,1.09 11.53,3.26 3.48,2.17 6.04,5.11 7.62,8.7 2.18,4.96 3.26,10.34 3.26,16.09"
             style="fill:#231f20;fill-opacity:1;fill-rule:nonzero;stroke:none"
             id="path1045"
             inkscape:connector-curvature="0" /><path
             d="m 2775.51,1753.68 c -2.18,-2.18 -4.46,-4.89 -6.96,-8.27 -3.05,-3.91 -5.88,-6.57 -8.48,-8.05 -2.62,-1.4 -5.34,-2.17 -8.27,-2.17 -3.05,0 -5.34,0.31 -6.97,0.86 -0.7,0.45 -1.08,1.05 -1.08,1.74 l 0.21,0.66 c 0.76,4.52 1.2,10.66 1.31,18.48 h 3.7 c 1.19,-2.71 2.6,-4.62 4.35,-5.65 1.74,-1.14 3.86,-1.74 6.31,-1.74 3.21,0 6.2,1.09 8.92,3.27 2.77,2.18 4.57,5.22 5.44,9.14 0.86,3.91 1.29,11.64 1.29,23.05 0,7.56 -0.26,13.87 -0.86,18.92 -0.11,2.08 -0.65,3.28 -1.51,3.7 -2.2,1.2 -5.23,1.74 -9.15,1.74 h -5 v 4.8 c 8.42,-0.44 16.31,-0.66 23.7,-0.66 7.29,0 14.47,0.22 21.55,0.66 v -4.8 l -7.85,-0.65 c -2.88,-0.26 -4.67,-0.75 -5.42,-1.51 -0.71,-0.89 -1.14,-3.54 -1.31,-8.05 -0.43,-7.85 -0.66,-17.09 -0.66,-27.85 0,-13.05 0.55,-20.73 1.54,-23.07 0.75,-1.4 2.97,-2.17 6.74,-2.17 h 6.96 v -4.79 c -5.34,-0.54 -10.07,-1.29 -14.15,-2.17 -4.18,-0.98 -7.88,-2.23 -11.09,-3.69 -0.7,-0.45 -1.36,-0.66 -1.95,-0.66 -0.55,0 -0.94,0.21 -1.09,0.66 -0.28,0.32 -0.45,0.98 -0.45,1.95"
             style="fill:#231f20;fill-opacity:1;fill-rule:nonzero;stroke:none"
             id="path1047"
             inkscape:connector-curvature="0" /><path
             d="M 1778.97,3312.72 H 3971.75"
             style="fill:none;stroke:#231f20;stroke-width:10.44169998;stroke-linecap:butt;stroke-linejoin:miter;stroke-miterlimit:4;stroke-dasharray:10.4417, 10.4417;stroke-dashoffset:0;stroke-opacity:1"
             id="path1049"
             inkscape:connector-curvature="0" /><path
             d="m 2871.16,3203.83 c 0,-8.97 -2.82,-16.15 -8.47,-21.53 -5.77,-5.5 -13.55,-8.26 -23.28,-8.26 -9.25,0 -16.59,2.55 -21.97,7.62 -5.33,5.1 -8.05,11.84 -8.05,20.22 0,9.03 3.15,16.53 9.36,22.62 6.08,6.09 13.87,9.14 23.27,9.14 5.98,0 11.09,-1.14 15.44,-3.48 4.24,-2.46 7.56,-5.93 10.02,-10.45 2.49,-4.61 3.68,-9.89 3.68,-15.88 z m -8.26,-3.47 c 0,6.25 -0.98,11.69 -3.03,16.31 -2.2,4.51 -5.02,7.94 -8.49,10.24 -3.6,2.16 -7.68,3.25 -12.19,3.25 -4.19,0 -7.88,-0.93 -11.1,-2.83 -3.14,-2.02 -5.65,-4.9 -7.39,-8.7 -1.85,-3.91 -2.82,-8.55 -2.82,-13.93 0,-5.75 1.02,-10.71 3.04,-14.79 2.06,-4.19 4.79,-7.28 8.27,-9.36 3.48,-2 7.6,-3.03 12.39,-3.03 4.36,0 8.16,0.98 11.32,2.83 3.04,1.74 5.54,4.45 7.39,8.04 1.74,3.48 2.61,7.5 2.61,11.97"
             style="fill:#231f20;fill-opacity:1;fill-rule:nonzero;stroke:none"
             id="path1051"
             inkscape:connector-curvature="0" /><path
             d="m 2791.49,3201.66 -5.65,-5 c -1.41,-1.3 -2.66,-2.07 -3.69,-2.4 -1.59,-0.54 -3.49,-0.87 -5.67,-0.87 -4.77,0 -8.59,1.53 -11.52,4.56 -3.05,2.94 -4.57,6.75 -4.57,11.55 0,2.32 0.38,4.66 1.08,6.96 0.6,2.33 1.42,4.23 2.4,5.65 1.03,1.46 2.11,2.72 3.26,3.69 0.44,0.34 2.13,1.31 5.01,3.05 l 1.52,1.31 c 2.16,1.46 3.91,2.39 5.22,2.83 1.19,0.42 2.56,0.65 4.13,0.65 1.31,0 2.71,-0.23 4.14,-0.65 1.46,-0.33 2.93,-0.77 4.34,-1.53 v 5.89 c 0,5.76 -0.04,9.88 -0.21,12.38 0,0.97 -0.28,1.74 -0.87,2.18 -0.7,0.54 -2.01,0.87 -3.92,0.87 h -2.17 v 2.17 c 5.11,-0.16 8.87,-0.2 11.31,-0.2 2.61,0 5.99,0.04 10,0.2 v -2.17 h -2.82 c -2.17,0 -3.37,-0.54 -3.7,-1.52 -0.44,-0.87 -0.66,-5.6 -0.66,-14.14 v -25.24 c 0,-4.34 0.12,-7.66 0.22,-10 0.17,-1.14 0.44,-1.85 0.88,-2.18 0.43,-0.44 1.47,-0.65 3.03,-0.65 h 3.05 v -2.39 c -3.74,-0.45 -7.44,-1.2 -11.09,-2.4 l -2.4,-1.08 c -0.43,0 -0.65,0.43 -0.65,1.29 z m 0,22.4 c -1.74,1.91 -3.48,3.27 -5.22,4.14 -1.74,0.87 -3.52,1.3 -5.43,1.3 -4.36,0 -7.68,-1.57 -10.01,-4.79 -2.28,-3.3 -3.48,-7.22 -3.48,-11.73 0,-2.9 0.6,-5.44 1.74,-7.62 1.03,-2.18 2.56,-3.81 4.57,-5 2.07,-1.15 4.24,-1.75 6.52,-1.75 1.64,0 3.21,0.39 4.79,1.09 1.46,0.6 2.78,1.47 3.92,2.61 1.19,1.2 1.96,2.18 2.39,3.05 0.17,0.75 0.21,2.72 0.21,5.88"
             style="fill:#231f20;fill-opacity:1;fill-rule:nonzero;stroke:none"
             id="path1053"
             inkscape:connector-curvature="0" /><path
             d="m 2741.9,3200.8 v 15.87 c 0,4.24 -0.06,6.9 -0.23,8.04 -0.26,1.2 -0.85,2.14 -1.74,2.83 -0.86,0.6 -1.95,0.88 -3.26,0.88 -0.71,0 -1.41,-0.12 -2.16,-0.43 -0.71,-0.29 -1.43,-0.71 -2.19,-1.31 l -1.3,1.31 3.92,4.77 c 0.86,0.28 1.73,0.5 2.6,0.65 0.87,0.12 1.7,0.23 2.39,0.23 2.08,0 3.82,-0.38 5.23,-1.09 1.3,-0.7 2.28,-1.63 2.82,-2.82 0.6,-1.14 0.88,-2.88 0.88,-5.23 v -23.27 c 2.06,0 4.25,0.11 6.53,0.21 v -1.74 c -2.28,-0.87 -4.47,-1.81 -6.53,-2.83 0,-3.92 0.11,-8.11 0.22,-12.62 -3.05,-1.3 -5.27,-2.39 -6.75,-3.25 l -1.09,0.86 c 0.34,2.08 0.55,7.08 0.66,15.01 -3.16,0 -5.88,-0.06 -8.05,-0.21 h -3.27 l 0.44,4.14"
             style="fill:#231f20;fill-opacity:1;fill-rule:nonzero;stroke:none"
             id="path1055"
             inkscape:connector-curvature="0" /><path
             d="m 2717.7,3175.12 c -1.31,0 -2.39,0.54 -3.27,1.52 -0.86,0.88 -1.3,1.97 -1.3,3.27 0,1.19 0.44,2.29 1.3,3.26 0.88,0.86 1.96,1.31 3.27,1.31 1.3,0 2.4,-0.45 3.26,-1.31 0.87,-0.97 1.31,-2.07 1.31,-3.26 0,-1.3 -0.44,-2.39 -1.31,-3.27 -0.86,-0.98 -1.96,-1.52 -3.26,-1.52 z m -3.27,18.06 -1.09,0.66 c 0.33,2.05 0.43,4.28 0.43,6.73 0.17,7.99 0.23,13.87 0.23,17.63 0,3.48 -0.06,6.46 -0.23,8.91 -0.1,1.03 -0.43,1.74 -0.86,2.17 -0.43,0.33 -1.36,0.6 -2.83,0.88 l -2.82,0.22 v 2.38 c 3.91,-0.15 7.56,-0.21 10.87,-0.21 3.2,0 6.42,0.06 9.57,0.21 v -2.38 l -3.49,-0.22 c -1.28,-0.11 -2.05,-0.34 -2.38,-0.66 -0.27,-0.43 -0.5,-1.8 -0.65,-4.13 -0.11,-3.48 -0.22,-8.16 -0.22,-14.13 0,-4.36 0.11,-7.62 0.22,-9.8 0,-0.87 0.21,-1.41 0.65,-1.74 0.44,-0.44 1.41,-0.65 2.83,-0.65 h 3.04 v -2.39 c -3.15,-0.45 -5.54,-0.87 -7.18,-1.3 -1.56,-0.44 -3.59,-1.15 -6.09,-2.18"
             style="fill:#231f20;fill-opacity:1;fill-rule:nonzero;stroke:none"
             id="path1057"
             inkscape:connector-curvature="0" /><path
             d="m 2689.91,3200.8 -5.45,-5.01 c -0.87,-0.72 -1.79,-1.2 -2.82,-1.53 -1.42,-0.54 -2.82,-0.87 -4.13,-0.87 -3.16,0 -5.65,0.6 -7.39,1.74 -1.85,1.03 -3.6,2.99 -5.23,5.87 l -5.21,-4.79 c -0.88,-0.85 -1.97,-1.51 -3.28,-1.95 -1.74,-0.54 -3.37,-0.87 -5,-0.87 -2.45,0 -4.62,0.6 -6.52,1.74 -2.01,1.2 -3.54,2.73 -4.57,4.57 -0.98,1.74 -1.52,4.25 -1.52,7.41 l 0.21,15.86 c 0,3.48 -0.21,5.62 -0.66,6.31 -0.43,0.6 -1.4,0.99 -3.03,1.1 h -3.05 v 2.38 h 1.96 c 3.2,-0.15 5.32,-0.21 6.31,-0.21 1.74,0 3.8,0.06 6.09,0.21 -0.44,-4.89 -0.66,-10.71 -0.66,-17.4 0,-5.66 0.33,-9.35 0.87,-11.08 0.44,-1.74 1.41,-3.11 2.83,-4.14 1.31,-0.98 3.05,-1.53 5.22,-1.53 2.34,0 4.34,0.65 6.08,1.96 1.65,1.2 2.62,2.72 3.06,4.57 0.33,1.03 0.43,5.82 0.43,14.36 0,4.95 0,7.78 0,8.49 -0.1,0.6 -0.32,1.02 -0.64,1.29 -0.44,0.33 -1.65,0.6 -3.7,0.88 l -2.83,0.22 v 2.38 c 4.94,-0.15 8.48,-0.21 10.65,-0.21 1.73,0 5.22,0.06 10.45,0.21 v -2.38 h -2.61 c -1.75,0 -2.83,-0.22 -3.26,-0.65 -0.44,-0.45 -0.71,-1.53 -0.88,-3.28 -0.26,-4.45 -0.43,-9.13 -0.43,-13.92 0,-4.34 0.37,-7.28 1.08,-8.91 0.6,-1.58 1.63,-2.88 3.05,-3.92 1.3,-0.98 2.94,-1.52 4.78,-1.52 2.19,0 4.14,0.65 5.87,1.96 1.65,1.2 2.79,2.55 3.48,4.14 0.45,1.18 0.67,4.45 0.67,9.78 0,5.82 -0.06,10.11 -0.22,12.85 -0.11,1.29 -0.33,2.16 -0.65,2.59 -0.28,0.32 -1.42,0.55 -3.49,0.66 l -2.82,0.22 v 2.38 c 3.37,-0.15 6.51,-0.21 9.57,-0.21 3.48,0 7.29,0.06 11.31,0.21 v -2.38 h -3.26 c -1.75,0 -2.72,-0.44 -3.05,-1.31 -0.44,-0.98 -0.64,-6.1 -0.64,-15.23 0,-6.79 0.09,-10.76 0.2,-11.96 0,-1.31 0.23,-2.08 0.66,-2.39 0.42,-0.44 1.63,-0.66 3.47,-0.66 h 2.62 v -2.17 c -4.02,-0.54 -7.5,-1.3 -10.44,-2.19 l -3.05,-1.29 c -0.43,0 -0.65,0.37 -0.65,1.08 v 1.53 c 0.17,1.47 0.22,3.16 0.22,5.01"
             style="fill:#231f20;fill-opacity:1;fill-rule:nonzero;stroke:none"
             id="path1059"
             inkscape:connector-curvature="0" /><path
             d="m 2625.95,3204.49 v -5.66 l -4.35,-2.39 c -2.01,-1.14 -3.75,-1.97 -5.22,-2.39 -1.58,-0.44 -3.26,-0.66 -5,-0.66 -3.76,0 -6.74,0.87 -8.93,2.61 -2.29,1.64 -3.74,3.7 -4.34,6.31 -0.28,2.06 -0.43,6.91 -0.43,14.58 -0.11,7.28 -0.28,11.31 -0.45,12.18 -0.27,0.75 -0.97,1.09 -2.17,1.09 h -3.26 v 2.6 c 3.21,-0.15 5.38,-0.21 6.52,-0.21 1.64,0 3.64,0.06 6.09,0.21 v -3.48 c 0,-1.14 0,-2.37 0,-3.69 l 8.48,6.53 c 0.77,0.54 1.53,0.92 2.4,1.08 0.77,0.27 1.74,0.44 3.05,0.44 3.48,0 6.19,-0.88 8.04,-2.62 1.75,-1.74 2.62,-4.02 2.62,-6.96 0,-2.71 -0.65,-5.11 -1.96,-7.17 -1.31,-2.02 -3.16,-3.53 -5.66,-4.57 -2.45,-0.98 -8.1,-2.24 -16.97,-3.7 0.17,-3.48 0.98,-6.08 2.4,-7.82 1.9,-2.19 4.51,-3.28 7.82,-3.28 1.31,0 2.57,0.23 3.71,0.66 1.19,0.32 2.29,0.77 3.26,1.31 0.76,1.89 1.47,3.8 2.18,5.65 z m -21.54,6.52 c 7.56,1.63 12.41,3.15 14.58,4.57 2.06,1.47 3.05,3.65 3.05,6.53 0,2.06 -0.54,3.69 -1.74,5 -1.31,1.19 -2.84,1.74 -4.58,1.74 -2.01,0 -3.97,-0.55 -5.86,-1.74 -1.85,-1.14 -3.7,-2.88 -5.45,-5.22 l 0.23,-8.91"
             style="fill:#231f20;fill-opacity:1;fill-rule:nonzero;stroke:none"
             id="path1061"
             inkscape:connector-curvature="0" /><path
             d="m 2573.74,3172.3 c 0.6,7.99 0.87,15.15 0.87,21.54 v 21.09 c 0,8.27 -0.21,13 -0.66,14.14 -0.09,0.6 -0.97,0.98 -2.6,1.09 l -3.48,0.22 v 2.38 c 2.94,-0.15 5.76,-0.21 8.48,-0.21 2.93,0 6.86,0.06 11.75,0.21 v -2.38 l -3.48,-0.22 c -1.58,-0.11 -2.51,-0.49 -2.83,-1.09 -0.27,-1.14 -0.43,-5.98 -0.43,-14.57 v -28.73 l 0.21,-5.22 c 0,-1.3 0.16,-2.17 0.45,-2.6 0.43,-0.43 1.29,-0.65 2.6,-0.65 h 3.48 v -2.39 c -5.65,-0.44 -10.11,-1.41 -13.49,-3.05"
             style="fill:#231f20;fill-opacity:1;fill-rule:nonzero;stroke:none"
             id="path1063"
             inkscape:connector-curvature="0" /><path
             d="m 2529.21,3200.8 -5.44,-5.01 c -0.87,-0.72 -1.81,-1.2 -2.84,-1.53 -1.41,-0.54 -2.82,-0.87 -4.13,-0.87 -3.16,0 -5.65,0.6 -7.39,1.74 -1.85,1.03 -3.59,2.99 -5.22,5.87 l -5.23,-4.79 c -0.87,-0.85 -1.95,-1.51 -3.26,-1.95 -1.74,-0.54 -3.38,-0.87 -5,-0.87 -2.45,0 -4.63,0.6 -6.54,1.74 -2,1.2 -3.53,2.73 -4.56,4.57 -0.97,1.74 -1.52,4.25 -1.52,7.41 l 0.21,15.86 c 0,3.48 -0.21,5.62 -0.64,6.31 -0.44,0.6 -1.42,0.99 -3.05,1.1 h -3.04 v 2.38 h 1.96 c 3.19,-0.15 5.31,-0.21 6.3,-0.21 1.75,0 3.81,0.06 6.09,0.21 -0.44,-4.89 -0.65,-10.71 -0.65,-17.4 0,-5.66 0.33,-9.35 0.87,-11.08 0.44,-1.74 1.41,-3.11 2.83,-4.14 1.31,-0.98 3.05,-1.53 5.22,-1.53 2.34,0 4.35,0.65 6.09,1.96 1.64,1.2 2.61,2.72 3.04,4.57 0.34,1.03 0.45,5.82 0.45,14.36 0,4.95 0,7.78 0,8.49 -0.11,0.6 -0.33,1.02 -0.66,1.29 -0.44,0.33 -1.64,0.6 -3.7,0.88 l -2.83,0.22 v 2.38 c 4.95,-0.15 8.48,-0.21 10.67,-0.21 1.73,0 5.22,0.06 10.44,0.21 v -2.38 h -2.62 c -1.74,0 -2.83,-0.22 -3.25,-0.65 -0.45,-0.45 -0.72,-1.53 -0.88,-3.28 -0.27,-4.45 -0.44,-9.13 -0.44,-13.92 0,-4.34 0.39,-7.28 1.09,-8.91 0.6,-1.58 1.63,-2.88 3.05,-3.92 1.31,-0.98 2.94,-1.52 4.78,-1.52 2.18,0 4.13,0.65 5.87,1.96 1.64,1.2 2.79,2.55 3.48,4.14 0.45,1.18 0.65,4.45 0.65,9.78 0,5.82 -0.05,10.11 -0.2,12.85 -0.11,1.29 -0.33,2.16 -0.66,2.59 -0.28,0.32 -1.42,0.55 -3.48,0.66 l -2.82,0.22 v 2.38 c 3.37,-0.15 6.51,-0.21 9.56,-0.21 3.48,0 7.3,0.06 11.32,0.21 v -2.38 h -3.27 c -1.74,0 -2.72,-0.44 -3.04,-1.31 -0.44,-0.98 -0.66,-6.1 -0.66,-15.23 0,-6.79 0.11,-10.76 0.22,-11.96 0,-1.31 0.22,-2.08 0.65,-2.39 0.43,-0.44 1.63,-0.66 3.48,-0.66 h 2.62 v -2.17 c -4.02,-0.54 -7.5,-1.3 -10.44,-2.19 l -3.05,-1.29 c -0.43,0 -0.66,0.37 -0.66,1.08 v 1.53 c 0.17,1.47 0.23,3.16 0.23,5.01"
             style="fill:#231f20;fill-opacity:1;fill-rule:nonzero;stroke:none"
             id="path1065"
             inkscape:connector-curvature="0" /><path
             d="m 2468.07,3213.19 c 0,-3.75 -0.86,-7.08 -2.61,-10.01 -1.73,-3.04 -4.13,-5.43 -7.18,-7.18 -3.15,-1.74 -6.73,-2.61 -10.65,-2.61 -5.77,0 -10.45,1.74 -13.93,5.22 -3.49,3.37 -5.23,7.95 -5.23,13.71 0,6.68 2.29,11.96 6.76,15.88 4.08,3.65 8.91,5.44 14.58,5.44 5.37,0 9.78,-1.79 13.26,-5.44 3.37,-3.59 5,-8.59 5,-15.01 z m -7.61,-2.83 c 0,5.65 -1.08,10.55 -3.26,14.58 -2.29,3.91 -5.65,5.87 -10.01,5.87 -3.31,0 -5.99,-1.2 -8.05,-3.7 -2.01,-2.61 -3.05,-6.42 -3.05,-11.53 0,-4.03 0.66,-7.62 1.97,-10.66 1.2,-3.04 2.76,-5.22 4.79,-6.51 1.89,-1.43 4.02,-2.2 6.3,-2.2 2.17,0 4.14,0.6 5.87,1.74 1.75,1.05 3.05,2.51 3.92,4.36 1.03,2.51 1.52,5.17 1.52,8.05"
             style="fill:#231f20;fill-opacity:1;fill-rule:nonzero;stroke:none"
             id="path1067"
             inkscape:connector-curvature="0" /><path
             d="m 2390.64,3195.79 v -14.59 c 0,-1.73 0.21,-2.82 0.63,-3.25 0.34,-0.43 1.11,-0.65 2.41,-0.65 h 3.7 v -2.61 c -4.91,-0.28 -9.47,-1.19 -13.71,-2.83 l -0.65,0.44 c 0.16,2.77 0.32,6.08 0.43,10 l 0.22,10.88 v 27.85 c 0,4.51 -0.1,7.06 -0.44,7.61 -0.27,0.75 -1.35,1.24 -3.26,1.52 l -2.82,0.22 v 2.38 c 3.37,-0.15 6.25,-0.21 8.7,-0.21 0.43,0 2.17,0.06 5.22,0.21 -0.11,-1.74 -0.28,-4.34 -0.43,-7.82 2.32,1.74 5.32,4.29 8.91,7.61 2.16,0.71 4.24,1.09 6.1,1.09 4.51,0 8.37,-1.75 11.53,-5.22 3.04,-3.48 4.56,-8.11 4.56,-13.92 0,-3.49 -0.54,-6.54 -1.74,-9.14 -1.14,-2.61 -2.51,-4.47 -4.13,-5.66 -1.74,-1.15 -4.35,-2.6 -7.83,-4.34 -2.73,-1.31 -5.27,-1.97 -7.61,-1.97 -1.42,0 -2.94,0.22 -4.57,0.66 -1.74,0.42 -3.48,1.02 -5.22,1.74 z m 0,7.18 c 1.89,-2.02 3.85,-3.54 5.86,-4.56 2.07,-1 4.13,-1.54 6.32,-1.54 3.48,0 6.31,1.31 8.48,3.93 2.16,2.59 3.26,6.4 3.26,11.31 0,5.1 -1.2,9.07 -3.69,11.95 -2.46,2.94 -5.44,4.36 -8.93,4.36 -2.17,0 -4.19,-0.55 -6.08,-1.74 -1.85,-1.14 -3.16,-2.68 -3.93,-4.57 -0.86,-2.01 -1.29,-5.11 -1.29,-9.36"
             style="fill:#231f20;fill-opacity:1;fill-rule:nonzero;stroke:none"
             id="path1069"
             inkscape:connector-curvature="0" /><path
             d="m 2364.37,3213.19 c -0.11,5.22 -1.54,9.3 -4.14,12.18 -2.61,2.77 -6.1,4.13 -10.44,4.13 -1.85,0 -3.76,-0.27 -5.66,-0.86 -1.85,-0.71 -3.7,-1.73 -5.44,-3.05 l -0.65,0.66 1.31,3.48 c 2.17,1.29 4.51,2.28 6.96,2.82 2.34,0.71 4.79,1.09 7.39,1.09 5.56,0 9.96,-1.75 13.26,-5.22 3.38,-3.48 5.02,-8.16 5.02,-14.15 0,-4.61 -0.93,-8.59 -2.82,-11.96 -1.14,-2.17 -3.39,-4.19 -6.76,-6.1 -3.47,-1.83 -6.79,-2.82 -10.01,-2.82 -4.77,0 -8.53,1.47 -11.3,4.36 -2.88,2.77 -4.36,6.68 -4.36,11.75 v 2.38 c 1.91,0.44 3.65,0.76 5.22,0.87 2.94,0.33 6.96,0.44 12.18,0.44 z m -0.23,-3.26 c -4.19,0.32 -8.81,0.43 -13.92,0.43 -2.01,0 -3.97,-0.11 -5.88,-0.43 v -2.18 c 0,-2.45 0.45,-4.67 1.32,-6.75 0.59,-1.4 1.68,-2.59 3.25,-3.48 1.48,-0.86 3.22,-1.31 5.22,-1.31 3.05,0 5.56,1.2 7.41,3.49 1.74,2.18 2.6,5.6 2.6,10.23"
             style="fill:#231f20;fill-opacity:1;fill-rule:nonzero;stroke:none"
             id="path1071"
             inkscape:connector-curvature="0" /><path
             d="m 2318.09,3172.3 c 0.59,7.99 0.86,15.15 0.86,21.54 v 21.09 c 0,8.27 -0.23,13 -0.65,14.14 -0.12,0.6 -0.98,0.98 -2.61,1.09 l -3.48,0.22 v 2.38 c 2.94,-0.15 5.76,-0.21 8.48,-0.21 2.94,0 6.85,0.06 11.75,0.21 v -2.38 l -3.48,-0.22 c -1.57,-0.11 -2.5,-0.49 -2.83,-1.09 -0.27,-1.14 -0.44,-5.98 -0.44,-14.57 v -28.73 l 0.22,-5.22 c 0,-1.3 0.17,-2.17 0.43,-2.6 0.45,-0.43 1.31,-0.65 2.62,-0.65 h 3.48 v -2.39 c -5.65,-0.44 -10.12,-1.41 -13.49,-3.05"
             style="fill:#231f20;fill-opacity:1;fill-rule:nonzero;stroke:none"
             id="path1073"
             inkscape:connector-curvature="0" /><path
             d="m 2256.13,3227.11 -1.08,0.88 1.74,2.6 c 1.73,1.03 3.64,1.74 5.65,2.17 1.91,0.54 3.93,0.88 6.1,0.88 3.91,0 7.34,-0.77 10.22,-2.18 2.78,-1.58 4.95,-3.8 6.52,-6.75 1.49,-2.88 2.18,-6.3 2.18,-10.21 0,-3.49 -0.55,-6.54 -1.75,-9.14 -1.28,-2.61 -2.93,-4.62 -5,-6.1 -2.16,-1.4 -4.78,-2.88 -7.83,-4.34 -2.28,-0.99 -4.83,-1.53 -7.6,-1.53 -2.02,0 -3.76,0.22 -5.22,0.66 -1.59,0.33 -3.27,0.87 -5.01,1.74 0.77,3.47 1.08,7.07 1.08,10.66 h 2.62 v -1.96 c 0,-1.74 0.32,-2.94 0.87,-3.69 0.44,-0.71 1.64,-1.42 3.47,-2.19 1.74,-0.72 3.65,-1.09 5.67,-1.09 3.8,0 6.68,1.2 8.7,3.48 1.9,2.18 2.83,5.56 2.83,10.01 0,5.66 -1.42,10.23 -4.36,13.7 -2.72,3.22 -6.14,4.79 -10.22,4.79 -1.57,0 -3.16,-0.22 -4.78,-0.65 -1.58,-0.43 -3.16,-0.98 -4.8,-1.74"
             style="fill:#231f20;fill-opacity:1;fill-rule:nonzero;stroke:none"
             id="path1075"
             inkscape:connector-curvature="0" /><path
             d="m 2249.12,3213.19 c 0,-3.75 -0.87,-7.08 -2.6,-10.01 -1.75,-3.04 -4.14,-5.43 -7.19,-7.18 -3.15,-1.74 -6.74,-2.61 -10.65,-2.61 -5.77,0 -10.45,1.74 -13.92,5.22 -3.49,3.37 -5.23,7.95 -5.23,13.71 0,6.68 2.29,11.96 6.74,15.88 4.08,3.65 8.93,5.44 14.58,5.44 5.39,0 9.79,-1.79 13.27,-5.44 3.37,-3.59 5,-8.59 5,-15.01 z m -7.6,-2.83 c 0,5.65 -1.11,10.55 -3.28,14.58 -2.28,3.91 -5.65,5.87 -10.01,5.87 -3.32,0 -5.97,-1.2 -8.05,-3.7 -2,-2.61 -3.03,-6.42 -3.03,-11.53 0,-4.03 0.64,-7.62 1.95,-10.66 1.2,-3.04 2.77,-5.22 4.79,-6.51 1.91,-1.43 4.02,-2.2 6.31,-2.2 2.17,0 4.13,0.6 5.87,1.74 1.74,1.05 3.05,2.51 3.91,4.36 1.04,2.51 1.54,5.17 1.54,8.05"
             style="fill:#231f20;fill-opacity:1;fill-rule:nonzero;stroke:none"
             id="path1077"
             inkscape:connector-curvature="0" /><path
             d="m 2190.82,3200.8 -5.44,-5.01 c -0.86,-0.72 -1.8,-1.2 -2.83,-1.53 -1.4,-0.54 -2.83,-0.87 -4.14,-0.87 -3.14,0 -5.64,0.6 -7.39,1.74 -1.84,1.03 -3.59,2.99 -5.21,5.87 l -5.23,-4.79 c -0.86,-0.85 -1.95,-1.51 -3.26,-1.95 -1.74,-0.54 -3.36,-0.87 -5,-0.87 -2.44,0 -4.63,0.6 -6.52,1.74 -2.02,1.2 -3.53,2.73 -4.59,4.57 -0.97,1.74 -1.51,4.25 -1.51,7.41 l 0.23,15.86 c 0,3.48 -0.23,5.62 -0.66,6.31 -0.43,0.6 -1.42,0.99 -3.06,1.1 h -3.03 v 2.38 h 1.95 c 3.2,-0.15 5.33,-0.21 6.31,-0.21 1.74,0 3.82,0.06 6.1,0.21 -0.45,-4.89 -0.66,-10.71 -0.66,-17.4 0,-5.66 0.33,-9.35 0.87,-11.08 0.43,-1.74 1.41,-3.11 2.82,-4.14 1.31,-0.98 3.06,-1.53 5.22,-1.53 2.34,0 4.36,0.65 6.1,1.96 1.63,1.2 2.61,2.72 3.05,4.57 0.32,1.03 0.44,5.82 0.44,14.36 0,4.95 0,7.78 0,8.49 -0.12,0.6 -0.34,1.02 -0.67,1.29 -0.42,0.33 -1.62,0.6 -3.69,0.88 l -2.83,0.22 v 2.38 c 4.96,-0.15 8.49,-0.21 10.67,-0.21 1.73,0 5.21,0.06 10.44,0.21 v -2.38 h -2.62 c -1.74,0 -2.83,-0.22 -3.27,-0.65 -0.42,-0.45 -0.7,-1.53 -0.87,-3.28 -0.27,-4.45 -0.43,-9.13 -0.43,-13.92 0,-4.34 0.39,-7.28 1.09,-8.91 0.6,-1.58 1.64,-2.88 3.05,-3.92 1.31,-0.98 2.93,-1.52 4.78,-1.52 2.18,0 4.15,0.65 5.88,1.96 1.63,1.2 2.77,2.55 3.48,4.14 0.43,1.18 0.66,4.45 0.66,9.78 0,5.82 -0.06,10.11 -0.23,12.85 -0.11,1.29 -0.32,2.16 -0.66,2.59 -0.25,0.32 -1.39,0.55 -3.47,0.66 l -2.82,0.22 v 2.38 c 3.36,-0.15 6.52,-0.21 9.56,-0.21 3.48,0 7.29,0.06 11.32,0.21 v -2.38 h -3.26 c -1.74,0 -2.73,-0.44 -3.05,-1.31 -0.43,-0.98 -0.66,-6.1 -0.66,-15.23 0,-6.79 0.12,-10.76 0.23,-11.96 0,-1.31 0.2,-2.08 0.64,-2.39 0.44,-0.44 1.64,-0.66 3.48,-0.66 h 2.62 v -2.17 c -4.03,-0.54 -7.51,-1.3 -10.44,-2.19 l -3.05,-1.29 c -0.44,0 -0.66,0.37 -0.66,1.08 v 1.53 c 0.17,1.47 0.22,3.16 0.22,5.01"
             style="fill:#231f20;fill-opacity:1;fill-rule:nonzero;stroke:none"
             id="path1079"
             inkscape:connector-curvature="0" /><path
             d="m 2116.85,3201.66 -5.65,-5 c -1.41,-1.3 -2.66,-2.07 -3.69,-2.4 -1.58,-0.54 -3.48,-0.87 -5.67,-0.87 -4.77,0 -8.58,1.53 -11.52,4.56 -3.05,2.94 -4.57,6.75 -4.57,11.55 0,2.32 0.38,4.66 1.09,6.96 0.59,2.33 1.42,4.23 2.39,5.65 1.04,1.46 2.12,2.72 3.26,3.69 0.44,0.34 2.13,1.31 5.01,3.05 l 1.52,1.31 c 2.17,1.46 3.91,2.39 5.22,2.83 1.2,0.42 2.56,0.65 4.14,0.65 1.3,0 2.71,-0.23 4.13,-0.65 1.46,-0.33 2.94,-0.77 4.34,-1.53 v 5.89 c 0,5.76 -0.04,9.88 -0.21,12.38 0,0.97 -0.27,1.74 -0.87,2.18 -0.7,0.54 -2,0.87 -3.91,0.87 h -2.18 v 2.17 c 5.11,-0.16 8.87,-0.2 11.31,-0.2 2.62,0 5.98,0.04 10.01,0.2 v -2.17 h -2.82 c -2.18,0 -3.38,-0.54 -3.72,-1.52 -0.42,-0.87 -0.64,-5.6 -0.64,-14.14 v -25.24 c 0,-4.34 0.11,-7.66 0.22,-10 0.17,-1.14 0.42,-1.85 0.87,-2.18 0.44,-0.44 1.47,-0.65 3.04,-0.65 h 3.05 v -2.39 c -3.74,-0.45 -7.45,-1.2 -11.1,-2.4 l -2.39,-1.08 c -0.44,0 -0.66,0.43 -0.66,1.29 z m 0,22.4 c -1.73,1.91 -3.47,3.27 -5.22,4.14 -1.74,0.87 -3.52,1.3 -5.43,1.3 -4.36,0 -7.67,-1.57 -10.01,-4.79 -2.28,-3.3 -3.48,-7.22 -3.48,-11.73 0,-2.9 0.6,-5.44 1.74,-7.62 1.03,-2.18 2.57,-3.81 4.57,-5 2.07,-1.15 4.25,-1.75 6.53,-1.75 1.63,0 3.2,0.39 4.79,1.09 1.46,0.6 2.77,1.47 3.91,2.61 1.2,1.2 1.96,2.18 2.39,3.05 0.17,0.75 0.21,2.72 0.21,5.88"
             style="fill:#231f20;fill-opacity:1;fill-rule:nonzero;stroke:none"
             id="path1081"
             inkscape:connector-curvature="0" /><path
             d="m 2066.18,3172.3 c 0.59,7.99 0.86,15.15 0.86,21.54 v 21.09 c 0,8.27 -0.21,13 -0.66,14.14 -0.09,0.6 -0.97,0.98 -2.6,1.09 l -3.48,0.22 v 2.38 c 2.94,-0.15 5.77,-0.21 8.48,-0.21 2.93,0 6.86,0.06 11.75,0.21 v -2.38 l -3.48,-0.22 c -1.58,-0.11 -2.51,-0.49 -2.83,-1.09 -0.28,-1.14 -0.43,-5.98 -0.43,-14.57 v -28.73 l 0.21,-5.22 c 0,-1.3 0.16,-2.17 0.45,-2.6 0.43,-0.43 1.29,-0.65 2.6,-0.65 h 3.48 v -2.39 c -5.65,-0.44 -10.1,-1.41 -13.49,-3.05"
             style="fill:#231f20;fill-opacity:1;fill-rule:nonzero;stroke:none"
             id="path1083"
             inkscape:connector-curvature="0" /><path
             d="m 2048.18,3213.19 c -0.11,5.22 -1.54,9.3 -4.14,12.18 -2.61,2.77 -6.1,4.13 -10.44,4.13 -1.85,0 -3.76,-0.27 -5.66,-0.86 -1.85,-0.71 -3.7,-1.73 -5.44,-3.05 l -0.65,0.66 1.31,3.48 c 2.16,1.29 4.5,2.28 6.96,2.82 2.34,0.71 4.79,1.09 7.39,1.09 5.56,0 9.95,-1.75 13.26,-5.22 3.39,-3.48 5.02,-8.16 5.02,-14.15 0,-4.61 -0.93,-8.59 -2.83,-11.96 -1.14,-2.17 -3.38,-4.19 -6.75,-6.1 -3.48,-1.83 -6.8,-2.82 -10.01,-2.82 -4.77,0 -8.54,1.47 -11.3,4.36 -2.88,2.77 -4.36,6.68 -4.36,11.75 v 2.38 c 1.91,0.44 3.64,0.76 5.22,0.87 2.94,0.33 6.96,0.44 12.18,0.44 z m -0.23,-3.26 c -4.19,0.32 -8.81,0.43 -13.92,0.43 -2.01,0 -3.97,-0.11 -5.87,-0.43 v -2.18 c 0,-2.45 0.44,-4.67 1.3,-6.75 0.6,-1.4 1.69,-2.59 3.26,-3.48 1.48,-0.86 3.21,-1.31 5.22,-1.31 3.05,0 5.56,1.2 7.41,3.49 1.74,2.18 2.6,5.6 2.6,10.23"
             style="fill:#231f20;fill-opacity:1;fill-rule:nonzero;stroke:none"
             id="path1085"
             inkscape:connector-curvature="0" /><path
             d="m 2016.02,3197.31 -7.61,-3.7 c -1.73,0.6 -3.14,1.52 -4.34,2.83 -1.75,2.06 -4.62,6.31 -8.7,12.83 -3.49,-4.61 -7.08,-9.63 -10.88,-15.01 -0.98,0.16 -1.85,0.21 -2.61,0.21 -0.55,0 -1.75,-0.05 -3.48,-0.21 v 2.4 c 1.48,0 2.62,0.44 3.48,1.29 1.47,1.31 5.39,5.88 11.75,13.72 -3.6,5.38 -6.65,9.74 -9.14,13.04 -1.74,2.2 -3.1,3.59 -4.13,4.14 -0.71,0.34 -1.74,0.43 -3.05,0.43 v 2.4 c 2.51,0.59 5.16,1.31 8.05,2.18 1.47,-1.04 2.61,-2.07 3.48,-3.27 0.59,-0.71 3.64,-5.22 9.13,-13.49 2.5,3.21 4.47,5.82 5.88,7.84 1.31,1.91 3.04,4.51 5.22,7.82 1.2,-0.15 2.18,-0.21 3.05,-0.21 1.03,0 2.34,0.06 3.9,0.21 v -2.38 c -1.29,0 -2.16,-0.11 -2.59,-0.44 -0.55,-0.27 -1.97,-1.58 -4.14,-3.92 -3.16,-3.47 -6.36,-7.23 -9.58,-11.3 5.12,-7.52 8.44,-11.97 10.01,-13.28 1.48,-1.3 2.99,-1.95 4.57,-1.95 0.44,0 1.03,0 1.73,0"
             style="fill:#231f20;fill-opacity:1;fill-rule:nonzero;stroke:none"
             id="path1087"
             inkscape:connector-curvature="0" /><path
             d="m 1962.96,3175.12 c -1.31,0 -2.4,0.54 -3.28,1.52 -0.86,0.88 -1.29,1.97 -1.29,3.27 0,1.19 0.43,2.29 1.29,3.26 0.88,0.86 1.97,1.31 3.28,1.31 1.31,0 2.39,-0.45 3.25,-1.31 0.88,-0.97 1.31,-2.07 1.31,-3.26 0,-1.3 -0.43,-2.39 -1.31,-3.27 -0.86,-0.98 -1.94,-1.52 -3.25,-1.52 z m -3.28,18.06 -1.08,0.66 c 0.33,2.05 0.44,4.28 0.44,6.73 0.16,7.99 0.21,13.87 0.21,17.63 0,3.48 -0.05,6.46 -0.21,8.91 -0.11,1.03 -0.44,1.74 -0.88,2.17 -0.43,0.33 -1.36,0.6 -2.82,0.88 l -2.82,0.22 v 2.38 c 3.91,-0.15 7.55,-0.21 10.87,-0.21 3.2,0 6.42,0.06 9.57,0.21 v -2.38 l -3.48,-0.22 c -1.3,-0.11 -2.07,-0.34 -2.39,-0.66 -0.27,-0.43 -0.5,-1.8 -0.66,-4.13 -0.11,-3.48 -0.22,-8.16 -0.22,-14.13 0,-4.36 0.11,-7.62 0.22,-9.8 0,-0.87 0.21,-1.41 0.66,-1.74 0.43,-0.44 1.41,-0.65 2.82,-0.65 h 3.05 v -2.39 c -3.15,-0.45 -5.55,-0.87 -7.18,-1.3 -1.57,-0.44 -3.59,-1.15 -6.1,-2.18"
             style="fill:#231f20;fill-opacity:1;fill-rule:nonzero;stroke:none"
             id="path1089"
             inkscape:connector-curvature="0" /><path
             d="m 1935.6,3200.8 v 15.87 c 0,4.24 -0.06,6.9 -0.22,8.04 -0.27,1.2 -0.86,2.14 -1.75,2.83 -0.86,0.6 -1.95,0.88 -3.25,0.88 -0.72,0 -1.42,-0.12 -2.17,-0.43 -0.72,-0.29 -1.43,-0.71 -2.19,-1.31 l -1.3,1.31 3.91,4.77 c 0.87,0.28 1.75,0.5 2.61,0.65 0.88,0.12 1.7,0.23 2.39,0.23 2.08,0 3.82,-0.38 5.23,-1.09 1.3,-0.7 2.28,-1.63 2.82,-2.82 0.6,-1.14 0.88,-2.88 0.88,-5.23 v -23.27 c 2.06,0 4.25,0.11 6.53,0.21 v -1.74 c -2.28,-0.87 -4.47,-1.81 -6.53,-2.83 0,-3.92 0.12,-8.11 0.22,-12.62 -3.05,-1.3 -5.27,-2.39 -6.75,-3.25 l -1.09,0.86 c 0.33,2.08 0.54,7.08 0.66,15.01 -3.16,0 -5.88,-0.06 -8.05,-0.21 h -3.27 l 0.44,4.14"
             style="fill:#231f20;fill-opacity:1;fill-rule:nonzero;stroke:none"
             id="path1091"
             inkscape:connector-curvature="0" /><path
             d="m 1921.4,3254.75 -1.95,-6.33 h -0.88 c -0.71,0.88 -1.41,1.53 -2.17,1.97 -0.71,0.43 -1.42,0.65 -2.18,0.65 -1.74,0 -3.26,-0.88 -4.56,-2.62 -1.42,-1.62 -3.59,-6.08 -6.53,-13.47 1.19,-3.16 3.59,-9.2 7.19,-18.06 l 3.69,-9.35 3.26,-7.18 c 0.87,-2.61 2.29,-3.92 4.13,-3.92 h 1.74 v -2.18 c -2.88,0.16 -5.43,0.21 -7.61,0.21 -1.58,0 -5.5,-0.05 -11.75,-0.21 v 2.18 h 3.05 c 1.04,0 1.85,0.22 2.38,0.66 0.45,0.31 0.66,0.76 0.66,1.31 0,0.42 -0.26,1.39 -0.86,2.82 -2.74,7.56 -5.99,15.66 -9.8,24.36 -3.47,-7.95 -6.58,-15.66 -9.34,-23.05 -0.72,-2.02 -1.1,-3.33 -1.1,-3.93 0,-0.86 0.98,-1.41 2.83,-1.74 l 2.83,-0.43 v -2.18 c -3.16,0.16 -5.99,0.21 -8.48,0.21 -2.29,0 -4.68,-0.05 -7.18,-0.21 v 2.18 h 1.51 c 0.6,0 1.26,0.22 1.97,0.66 0.6,0.31 1.08,0.79 1.52,1.51 0.87,1.48 3.42,6.75 7.61,15.89 1.19,2.5 4.08,9.3 8.7,20.45 4.08,9.4 6.42,14.61 6.96,15.66 1.03,1.75 2.4,3.03 4.14,3.91 1.63,0.98 3.42,1.52 5.45,1.52 0.75,0 1.51,-0.15 2.39,-0.43 0.75,-0.17 1.51,-0.43 2.38,-0.86"
             style="fill:#231f20;fill-opacity:1;fill-rule:nonzero;stroke:none"
             id="path1093"
             inkscape:connector-curvature="0" /></g></g></g></g></svg>